<svg id="eLWesRaio0Y1" xmlns="http://www.w3.org/2000/svg" xmlns:xlink="http://www.w3.org/1999/xlink" viewBox="0 0 1600 2700" shape-rendering="geometricPrecision" text-rendering="geometricPrecision"><path d="M1128.00055,-179.1169C1075.0328,-46.69752,993.24283,59.99917,979.72674,208.67613c-15.11078,166.21857,25.1687,353.32198-22.81135,513.25548-11.32623,37.75409-37.59079,73.91916-62.73122,102.6511-127.06144,145.21307-259.1091,241.52147-279.4391,444.82142-8.40784,84.07841-31.09475,166.2852-5.70284,250.9249c37.54957,125.16525,90.47876,250.68548,153.97664,364.98168c13.43572,24.1843,21.92535,64.97742,39.91987,85.54258c7.29908,8.34181,20.17239,9.80944,28.51419,17.10852c42.82321,37.47031,75.9336,87.11469,119.75961,125.46245c38.08883,33.32773,67.88836,73.86405,114.05677,96.94826c59.90752,29.95376,135.38677,49.17029,199.59935,68.43406c82.2927,24.68781,381.26315,118.97581,422.01006,17.10852" transform="translate(.000001 0)" fill="none" stroke="#fff" stroke-width="4"/></svg>
