<svg id="eh54vtCWNT11" xmlns="http://www.w3.org/2000/svg" xmlns:xlink="http://www.w3.org/1999/xlink" viewBox="0 0 1600 1800" shape-rendering="geometricPrecision" text-rendering="geometricPrecision"><path d="M-87.94352,1000.36206c58.17933-43.6345,132.04502-63.96708,202.02752-81.46271c111.85853-27.96463,353.13796-84.14925,446.41564-140.11586c39.70739-23.82444,71.61514-55.3226,104.27227-87.97973C723.4094,632.16627,824.09058,529.97607,795.11224,433.3816c-6.63253-22.10843-40.65943-23.14979-58.65315-19.55105-96.63779,19.32756-134.52624,141.06846-120.56481,224.83707c4.3852,26.31121,21.69951,51.36028,32.58508,74.94569c19.03707,41.24699,36.75158,83.67043,58.65315,123.82332c45.21503,82.89423,117.1761,141.54801,107.53077,247.64663-5.01124,55.12362-134.12473,230.01127-175.95945,267.19768-27.67354,24.5987-72.75831,29.30402-94.49674,61.91166-37.55729,56.33593,32.81902,217.85551,78.2042,254.16365c14.56855,11.65484,34.05895,17.30768,52.13613,9.77553c35.95928-14.98304,233.38334-101.27131,211.80304-140.11586-3.10481-5.58867-42.41135-68.53016-22.80956-29.32657c23.3503,46.7006,66.049,81.5169,55.39464,140.11586-11.89189,65.40537-128.69415,68.80578-169.44243,32.58508-13.54847-12.04308-28.48424-39.20406-35.84359-55.39464-19.74675-43.44284-16.94874-103.26547-9.77553-149.89138c13.05668-84.86844,42.30605-124.44229,117.3063-169.44243c39.03906-23.42343,76.90158-53.87426,120.56481-68.42868c123.31987-41.10662,285.67831-8.69222,417.08907-32.58508c82.62647-15.02299,209.697449-77.51361,281.449469-120.56482" fill="none" stroke="#fff" stroke-width="3.5"/><path d="M1717.81318,476.96416c-54.02534,40.51901-390.69151,47.43257-458.22773,30.54852-24.61982-6.15495-47.93868-18.42853-67.88559-33.94279-51.42913-40.00043-60.5896-83.84213-88.25127-139.16546-24.72304-49.44608-65.56887-97.72602-101.82839-139.16546-76.41111-87.32698-231.45637-196.16703-329.24511-261.35952" fill="none" stroke="#fff" stroke-width="3.5"/></svg>