<svg id="eM7BxUvfeLq1" xmlns="http://www.w3.org/2000/svg" xmlns:xlink="http://www.w3.org/1999/xlink" viewBox="0 0 1600 2700" shape-rendering="geometricPrecision" text-rendering="geometricPrecision"><path d="M-100.51777,404.87145c67.86818,0,136.07061,37.44637,199.81711,59.94513c279.35383,98.59547,439.94899,194.84666,619.43304,439.59764c55.59467,75.81092,124.61352,162.18602,149.86283,254.76682c21.07604,77.2788,24.32383,160.69816,29.97257,239.78053c3.41945,47.87236,18.57152,113.42489,0,159.85369-69.24261,173.10651-420.43474,301.60912-574.47419,399.63422-103.22874,65.69101-167.32916,176.60134-239.78053,269.7531-64.33314,82.71403-170.28425,123.51369-254.76682,179.8354" fill="none" stroke="#fff" stroke-width="5"/><path d="M1103.06811,2797.05691c91.78826-73.43061,169.43824-160.19103,273.18746-218.54997c211.50736-118.97289,438.61292-159.21323,663.45525-234.16068" fill="none" stroke="#fff" stroke-width="5"/><path d="M1641.04339,998.31167c-60.78709,0-114.68968-30.16799-168.66453-54.70201-55.82249-25.37386-82.60034-61.69222-113.96252-113.96252-26.52706-44.21176-54.0202-88.91043-59.26051-141.31352-10.05544-100.55437,83.40455-314.1013,22.7925-392.03107-21.12028-27.15464-120.15532-107.76971-154.98903-72.93601-34.0884,34.0884-19.17059,121.09033,4.5585,154.98903c67.27001,96.10001,261.71843,188.16925,369.23856,237.04204c41.29483,18.77038,81.35466,26.65265,113.96252,59.26051" fill="none" stroke="#fff" stroke-width="5"/><path d="M960.135805,1938.620232c-45.45051-75.75084,98.819255-69.437532,138.734005-141.284082c3.38453-6.09215,6.51817-12.55538,7.76485-19.41214c15.26849-83.97671-65.00395-176.56465,85.41341-190.23896c20.8552-1.89593,46.87733-5.77159,62.11884,11.64728c37.06829,42.36376,14.92259,98.51466,27.17699,147.53225c15.28197,61.12789,83.47844,78.95935,93.17827,104.82555c2.80155,7.47081-9.93421,33.11404-11.64728,38.82428-34.96955,116.56516-49.98207,120.30631-166.94439,132.00254-36.23732,3.62373-66.17563,23.25969-104.82555,15.52971-60.52045-12.10409-114.238847-61.29691-135.248989-107.986116" transform="translate(97.75525-235.944336)" fill="none" stroke="#fff" stroke-width="5"/></svg>