<svg id="e9JLf8X0njA1" xmlns="http://www.w3.org/2000/svg" xmlns:xlink="http://www.w3.org/1999/xlink" viewBox="0 0 640 640" shape-rendering="geometricPrecision" text-rendering="geometricPrecision"><ellipse rx="287.566781" ry="272.949044" transform="matrix(1.112785 0 0 1.17238 320 320)" stroke-width="0"/><ellipse rx="99.058653" ry="80.376539" transform="matrix(.907319-.159985 0.158862 0.90095 320 320)" fill="#fff" stroke-width="0"/><rect width="18" height="240" rx="0" ry="0" transform="translate(392.261313 80)" fill="#fff" stroke-width="0"/><g transform="translate(-33.421564 21.491487)"><g transform="translate(1-17)"><rect width="18" height="270.389388" rx="0" ry="0" transform="matrix(.707107 0.707107-.261514 0.261514 433.504748 66.111581)" fill="#fff" stroke-width="0"/><rect width="18" height="270.389388" rx="0" ry="0" transform="matrix(.707107-.707107 0.261514 0.261514 421.133053 78.839503)" fill="#fff" stroke-width="0"/></g><g transform="translate(-113.446636 316.186232)"><rect width="18" height="270.389388" rx="0" ry="0" transform="matrix(-.707107-.707107 0.261514-.261514 385.285866 232.322285)" fill="#fff" stroke-width="0"/><rect width="18" height="270.389388" rx="0" ry="0" transform="matrix(.707107-.707107 0.261514 0.261514 314.710808 161.611606)" fill="#fff" stroke-width="0"/></g></g><rect width="18" height="240" rx="0" ry="0" transform="translate(229.738687 320)" fill="#fff" stroke-width="0"/></svg>