<svg id="e0wABlG9Mjc1" xmlns="http://www.w3.org/2000/svg" xmlns:xlink="http://www.w3.org/1999/xlink" viewBox="0 0 1600 900" shape-rendering="geometricPrecision" text-rendering="geometricPrecision"><g transform="matrix(.475277 0 0 0.475277 77.529266 53.79644)"><path d="M372.26068,411.78457c-11.63331,29.08326-43.85957-24.06084-28.8705-33.42901c13.80022-8.62513,40.26406,26.29113,31.90951,37.98751-11.59179,16.2285-54.84109-52.44536-39.50701-59.26051c27.82468-12.36652,44.50161,68.76863,19.7535,63.81901-27.06293-5.41259-35.0796-72.88241-33.42901-92.68951.37402-4.48829,1.27714-13.13599,9.117-12.156c14.5013,1.81266,10.27491,52.67468,9.117,60.78001-.24133,1.68932-5.73933,26.17018-6.078,25.8315-4.93959-4.9396,2.55709-97.12086,9.117-101.80652c4.45815-3.18439,8.8131,8.2053,9.117,13.6755c1.32761,23.89696-2.50742,46.02255-10.6365,68.37751-2.16885,5.96433-4.6294,21.20211-9.117,16.7145-10.94975-10.94975,21.58401-112.44302,34.94851-112.44302c6.75755,0,4.5585,12.99595,4.5585,19.7535c0,28.56469-11.23172,60.89408-28.8705,83.57251-1.5548,1.99903-2.10161,6.69222-4.5585,6.078-5.91697-1.47924-1.5195-12.13493-1.5195-18.234c0-32.74943,10.91959-70.96816,33.42901-95.72852c5.58804-6.14684,13.87941-21.06909,19.7535-15.195c5.9037,5.9037-22.75911,52.37267-27.351,59.26051-3.38315,5.07473-8.77285,18.75024-12.156,13.6755-6.7885-10.18276,31.46118-75.05061,44.06551-82.05301c2.38434-1.32463,5.66881-4.96769,7.5975-3.039c21.04848,21.04848-64.05595,78.3135-85.09201,83.57251-4.45017,1.11254-11.05269,3.95517-13.6755-3.039-8.79827-23.46205,73.15677-61.09868,88.13102-66.85801c4.82102-1.85424,12.88501-7.65899,15.195-3.039c6.65342,13.30684-50.48926,58.85409-60.78001,66.85801-1.99903,1.5548-4.94543,6.82364-6.078,4.5585-5.26726-10.53452,43.55875-65.64218,51.66301-72.93601c5.065-4.5585,10.37659-18.49391,15.195-13.6755c2.17854,2.17854-.61345,6.17232-1.5195,9.117-3.79842,12.34486-69.88287,112.67221-89.65051,95.72852-13.07289-11.20533,28.34609-133.84713,59.26051-126.11852c33.12023,8.28006,26.63004,142.93284,1.5195,139.79402-13.85535-1.73192-5.8977-65.24937,24.312-69.89701c38.68101-5.95092,37.99636,66.85469,25.8315,71.41651-16.2898,6.10867-23.76852-71.42761-13.6755-74.45551c24.85734-7.4572,47.19542,88.06283,28.8705,101.80652-18.68271,14.01203-39.84421-77.94273-42.54601-89.65051-.69277-3.00202-4.08298-7.40801-1.5195-9.117c8.7711-5.8474,17.05325,13.12869,18.234,15.195c17.87625,31.28343,28.60411,76.39917,25.8315,112.44302-.19808,2.57505.93062,6.78079-1.5195,7.5975-2.80182.93394-5.90385-2.139-7.5975-4.5585-13.79407-19.70582-13.6755-62.47006-13.6755-85.09201c0-5.45517,1.34158-17.90153,6.078-15.195c13.89706,7.94117,13.6755,76.93205,13.6755,92.68951c0,12.05748-2.74727,23.29096-6.078,34.94851-.74933,2.62264-1.52601,9.86699-3.039,7.5975-2.24765-3.37147-.31077-8.11594,0-12.156.59715-7.76292,7.71717-92.80919,10.6365-95.72852c2.26514-2.26514,2.64167,5.93835,3.039,9.117c1.36624,10.92991,0,23.82783,0,34.94851c0,11.75429-12.38398,85.13001-21.273,86.61151-2.49804.41634-3.83079-3.65231-4.5585-6.078-6.31208-21.04027-1.8011-59.86481,4.5585-80.53351.94207-3.06173-.06874-8.34007,3.039-9.117c2.64615-.66154,2.65326,4.89733,3.039,7.5975c1.31781,9.22469-.41382,82.76104-18.234,80.53351-9.25333-1.15667-25.37299-74.67303-21.273-82.05301c1.43429-2.58172,4.76868-5.40715,7.5975-4.5585c17.73117,5.31935,25.93735,93.09585,6.078,88.13101-2.93289-.73322-39.06443-70.51167-41.02651-79.01401-.68335-2.96118-2.82164-7.98834,0-9.117c3.01122-1.20449,5.42793,3.66736,7.5975,6.078c8.36815,9.29794,21.20824,38.16021,16.7145,50.14351-.88922,2.37125-3.60581,5.10788-6.078,4.5585-15.26455-3.39212-42.71005-50.42847-44.06551-65.33851-.23382-2.57205-.93062-6.78079,1.5195-7.5975c10.8099-3.6033,27.61727,48.07546,28.87051,56.22151.4621,3.00366,2.82164,7.98834,0,9.117-3.01122,1.20449-5.73766-3.42108-7.5975-6.078-15.82298-22.60425-18.90016-72.66618-21.273-98.76752-.27514-3.02652-2.5286-7.43127,0-9.117c2.10717-1.40478,3.51054,3.7725,4.5585,6.078c9.1044,20.02967,7.5975,43.92917,7.5975,65.33851c0,5.59448,3.78789,18.48363-1.5195,16.7145-3.039-1.013-2.31869-5.99565-3.039-9.117-7.38681-32.00949-8.25404-67.64651-6.078-100.28702.23824-3.57356-1.46048-8.64985,1.5195-10.6365c2.45736-1.63824,6.10938,2.00744,7.5975,4.5585c8.39889,14.39811,5.2148,45.98102,3.039,62.29951-1.024,7.68-2.67934,15.27588-4.5585,22.7925-.62639,2.50554.30671,9.42371-1.5195,7.5975-6.72731-6.72731,3.60141-69.0484,4.5585-80.53351.30164-3.61974,7.35701-45.74534,7.5975-45.58501c10.3123,6.87487,2.68051,56.05048,1.5195,65.33851-.83817,6.70537-2.91955,13.19771-4.5585,19.7535-.62639,2.50554-2.6745,9.9075-1.5195,7.5975c8.34234-16.68468,17.71037-95.21223,31.9095-103.32602c7.47722-4.2727,10.98391,7.70628,12.156,10.6365c10.2676,25.66901,13.6755,50.04924,13.6755,77.49451c0,5.09026,3.03337,17.47144-1.5195,15.195-9.12725-4.56362-22.51549-83.7599-19.7535-95.72852.66409-2.87774,1.6933-6.8812,4.5585-7.5975c21.19047-5.29762,50.24738,113.65091,42.54601,136.75502-.93394,2.80182-1.60512,7.5975-4.5585,7.5975-16.8257,0-36.37554-91.97309,3.039-74.45551c30.85213,13.71206,9.14379,92.68952-9.117,92.68952-8.68799,0-1.71889-26.5225,0-30.39c1.02855-2.31423,3.039-8.104,4.5585-6.078c5.1663,6.8884.53711,17.23777,0,25.8315-.25197,4.03148-10.95126,44.74657-13.6755,44.06551-3.34643-.83661-5.55936-45.25139-4.5585-45.58501c4.43289-1.47763,9.81475,37.69485,0,36.46801-3.64828-.45604-41.45119-53.91886-41.02651-57.74101c1.47453-13.27078,33.80398,33.1076,22.7925,42.54601-2.69194,2.30738-7.4088,1.46714-10.6365,0-16.83527-7.6524-58.15294-66.67727-63.81901-85.09201-.99943-3.24816-3.52114-13.83414,1.5195-16.7145c20.80992-11.89138,37.98751,59.92748,37.98751,69.89701c0,3.86857.35485,16.51706-9.117,13.6755-18.28833-5.4865-26.14368-51.16276-27.351-66.85801-.23308-3.03005,0-6.078,0-9.117s-1.03856-6.26097,0-9.117c7.86117-21.6182,14.35925,5.56519,13.6755,6.078-5.91726,4.43795-17.79651-22.56984-19.7535-25.8315" fill="none" stroke="#000" stroke-width="3.2"/><path d="M127.62114,221.84704c-.59241-.74051-9.65099-11.90157-10.6365-13.6755-20.89518-37.61133,54.32694,22.65425,56.22151,24.312c2.15628,1.88675,8.104,4.052,6.078,6.078-2.26514,2.26514-6.2518-1.6064-9.117-3.039-5.55624-2.77812-70.97638-48.62401-48.62401-48.62401c12.07323,0,53.31534,36.14398,54.70201,48.62401.27967,2.51701-2.04556,5.76388-4.5585,6.078-11.9467,1.49334-52.80092-41.12871-63.81901-50.14351-3.06169-2.50502-9.76735-3.69543-9.117-7.5975.58879-3.53277,7.13451-2.26993,10.6365-1.5195c24.36152,5.22032,52.04495,38.47286,69.89701,54.70201c4.77017,4.33652,18.83286,9.80749,13.6755,13.6755-9.01423,6.76068-35.93222-23.18295-41.02651-27.35101-11.39578-9.32382-21.87651-19.62851-33.42901-28.8705-2.5325-2.026-9.0479-3.17721-7.5975-6.078c4.54786-9.09572,42.19726,18.78866,45.58501,21.273c3.11661,2.28551,34.26238,20.9785,33.429,24.312-.62639,2.50554-5.05651,1.9815-7.5975,1.5195-10.2736-1.86793-76.81914-51.83212-75.97501-57.74101.45303-3.17119,5.95086-3.5261,9.117-3.039c7.65675,1.17796,80.53514,61.79517,68.37751,45.58501" transform="translate(.000001 0)" fill="none" stroke="#000" stroke-width="3.2"/><path d="M341.87067,167.14503c-5.52716-33.16298-25.24012-62.97297-33.42901-95.72852-1.73728-6.94912-9.98812-19.53572-3.039-21.273c3.14635-.78659,4.46893,4.78163,6.078,7.5975c17.36848,30.39484,26.15662,72.42723,33.42901,106.36502c1.54523,7.21105,6.078,21.273,6.078,21.273s-4.2975-15.5835-4.5585-16.7145c-3.47577-15.06169-36.00298-131.38001-39.50701-133.71602-2.1489-1.4326-1.70351,5.02141-1.5195,7.5975.67267,9.41739,4.34916,20.88139,6.078,30.39001c4.61908,25.40495,10.56494,50.50966,15.195,75.97501c1.38578,7.62181,3.17272,15.17069,4.5585,22.7925.55113,3.03122,2.49377,12.03982,1.5195,9.117-8.88701-26.66104-14.24103-56.01015-19.7535-83.57251-1.7735-8.86752-3.8079-18.34382-4.5585-27.351-.21031-2.52375-2.40254-8.39835,0-7.5975c7.47835,2.49278,33.53919,70.52481,37.98751,80.53351c1.83992,4.13982,4.3955,7.94975,6.078,12.156c2.55856,6.39641,10.94936,24.62487,6.078,19.7535-7.4815-7.48151-20.87249-75.89246-24.312-89.65051-2.13322-8.53286-4.34847-17.18385-6.078-25.8315-.07536-.37678-3.27327-17.99974-4.5585-16.7145-2.5325,2.5325.65086,7.16194,1.5195,10.6365c6.99965,27.9986,10.62816,57.58244,12.156,86.61151.37364,7.09924,1.5195,21.273,1.5195,21.273s-1.05102-6.07191-1.5195-9.117c-4.01149-26.07467-9.25316-51.74655-15.195-77.49451-.58073-2.51652,1.06315-7.5975-1.5195-7.5975-5.5715,0-.58325,11.17361,0,16.7145c3.09296,29.38311,4.51827,58.87828,7.5975,88.13102c1.06178,10.08693.79687,20.27312,1.5195,30.39001.21951,3.07309,1.5195,12.19792,1.5195,9.117c0-38.99869-9.73349-81.64493-16.7145-120.04052-2.21907-12.2049-5.16255-24.29326-7.5975-36.46801-1.013-5.065-2.61005-10.04754-3.039-15.195-.29444-3.53325,0-14.182,0-10.6365c0,41.33576,13.62879,84.67164,18.234,126.11852.84087,7.56779-3.86467,17.40833,1.5195,22.7925c3.95589,3.95589,1.5195-11.12003,1.5195-16.7145c0-41.75737-2.51834-68.37751-1.5195-68.37751c2.72759,0,2.25523,4.98495,3.039,7.5975c5.69563,18.98542,9.2334,41.29599,12.156,60.78001c1.37108,9.1405,3.25138,18.20114,4.5585,27.351.35815,2.50705-1.13257,9.86264,0,7.5975c10.44601-20.89202-4.21668-110.35469-6.078-138.27452-.50538-7.58067,0-22.7925,0-22.7925s1.31608,15.6974,1.5195,16.7145c3.29976,16.49882,6.51435,73.02328,21.273,75.97501" transform="translate(.000001 0)" fill="none" stroke="#000" stroke-width="3.2"/><path d="M566.75671,153.46953c-3.82141,5.73212-7.95562,11.254-12.156,16.7145-4.8239,6.27107-9.98506,12.27978-15.195,18.234-.0558.06377-10.57307,13.6755-9.117,13.6755c4.4558,0,29.54649-56.79698,33.42901-65.33851c1.12868-2.4831.31141-7.5975,3.039-7.5975c5.92843,0-3.6248,11.31746-6.078,16.7145-6.03344,13.27358-11.00939,26.86394-18.234,39.50701-4.3533,7.61827-7.08944,11.94997-10.6365,19.7535-1.12868,2.4831-4.25881,10.03713-3.039,7.5975c11.23096-22.46191,21.52999-42.84972,37.98751-62.29951c4.40162-5.20191,12.14757-19.77036,15.195-13.6755c2.0742,4.14841-50.14351,60.60952-50.14351,68.37751c0,6.54945,3.00021-2.60578,12.156-15.195c8.66143-11.90947,18.63792-21.67692,28.8705-31.90951c1.79075-1.79075,2.76775-4.28725,4.5585-6.078c4.31269-4.31269,11.74681-17.94209,13.6755-12.156c4.62628,13.87884-47.10173,61.08169-56.22151,68.37751-2.5325,2.026-5.30422,8.37128-7.5975,6.078-2.40254-2.40254,2.9315-6.13417,4.5585-9.117c15.556-28.51933,39.1962-52.52143,57.74101-79.01401c1.69365-2.4195,1.60512-7.5975,4.5585-7.5975c2.72759,0-1.81919,5.15787-3.039,7.5975-3.06926,6.13853-7.21283,12.24259-10.6365,18.234-11.95608,20.92315-23.93558,40.65008-41.02651,57.74101-2.5325,2.5325-4.27217,8.92764-7.5975,7.5975-3.29191-1.31677-.53912-7.13223,0-10.6365c3.54043-23.0128,14.8672-45.9572,21.273-68.37751c1.62867-5.70033,4.37448-11.0361,6.078-16.7145.74212-2.47373,3.96962-8.41421,1.5195-7.5975-11.61471,3.87157-27.93921,41.91581-36.46801,51.66301-1.7184,1.96388-24.92134,28.26117-24.312,28.8705c1.92869,1.9287,5.44447-1.36442,7.5975-3.039c15.99759-12.44257,28.44781-33.22211,44.06551-47.10451c1.89281-1.6825,3.97083-5.96328,6.078-4.5585c5.04864,3.36576-14.09576,35.57889-16.7145,39.50701-7.43452,11.15179-12.72825,18.75694-10.6365,18.234c14.55091-3.63773,34.90632-42.48976,44.06551-54.70201" fill="none" stroke="#000" stroke-width="3.2"/><path d="M136.3756,435.92189c17.68829-10.61298,7.60338-4.64049,0,1.27325-1.67507,1.30283-4.14396,5.71778-5.09298,3.81974-2.37598-4.75195,13.79482-13.21092,16.5522-15.27895c14.06546-10.54909,26.8312-21.44635,42.01712-30.55791c2.93412-1.76047,7.38247-8.15349,8.91272-5.09298c1.61054,3.22109-4.90518,5.29579-7.63948,7.63948-19.43694,16.66023-40.18279,34.15645-62.38906,47.1101-4.42966,2.58397-11.71229,10.95306-14.00571,6.36623-4.61634-9.23268,42.28943-42.76721,49.6566-45.83686c2.10974-.87906,4.7501-4.16262,6.36623-2.54649s-1.2022,4.51783-2.54649,6.36623c-4.42281,6.08136-50.39645,37.45753-56.02283,31.83115-3.42111-3.42111,5.47327-10.71508,6.36623-11.45921c23.1036-19.253,50.8894-35.31741,78.94126-45.83686c8.87331-3.32749,17.9802-6.53682,26.73817-10.18597c2.98362-1.24317,9.93485-6.88612,8.91272-3.81974-4.32793,12.9838-65.66554,39.10775-80.2145,44.56361-6.42007,2.40753-16.03231,13.77224-19.09869,7.63948-2.28555-4.57109,7.27242-7.25521,11.45921-10.18597c22.77819-15.94473,48.89241-32.47926,75.12152-42.01712c5.18522-1.88553,12.8115-11.30114,15.27895-6.36623c1.63276,3.26552-4.05431,6.08704-6.36623,8.91272-5.95913,7.28339-60.76877,47.82763-66.2088,44.56361-6.18936-3.71362,22.67216-28.11424,25.46492-30.55791c6.16787-5.39689,41.3367-42.68002,50.92984-36.92414c1.8557,1.11342-.23696,4.46637-1.27325,6.36623-6.0468,11.0858-21.566,22.12281-33.1044,26.73817-2.12208.84883-6.36623,4.83204-6.36623,2.54649c0-7.20742,70.19836-42.9751,80.2145-45.83686c5.8429-1.6694,16.35163-9.71501,17.82545-3.81974c3.79727,15.18907-84.55738,60.21762-98.03995,53.47634-2.27765-1.13883-1.03423-5.31246,0-7.63948c5.01231-11.27769,68.46582-36.80835,81.48775-42.01712c9.52288-3.80915,18.71718-8.39515,28.01141-12.73246c2.57996-1.20398,9.65266-1.80656,7.63948-3.81974-2.18481-2.18481-6.04392,1.39897-8.91272,2.54649-18.45633,7.38253-34.55905,20.46264-52.20309,29.28466-2.43068,1.21534,4.10506-3.58554,6.36623-5.09298c6.94026-4.62684,14.68992-8.09562,21.64518-12.73246c1.76567-1.17712,3.37678-2.57159,5.09298-3.81974c16.56668-12.04849,30.86425-27.10891,49.6566-35.65089c2.59187-1.17812,7.63948-.97267,7.63948-3.81974c0-1.27906-19.2667,9.58311-20.37194,10.18597-16.31096,8.89689-32.76394,17.78644-49.6566,25.46492-5.88507,2.67503-11.79183,5.31886-17.82545,7.63948-2.1332.82046-7.98236,4.16262-6.36623,2.54649c5.90358-5.90358,15.58816-9.06732,22.91843-12.73246c26.8658-13.4329,50.53305-27.86713,78.94126-38.19738c2.52263-.91732,5.74143-4.44453,7.63948-2.54649c3.61377,3.61377-7.27242,7.25521-11.45921,10.18597-23.38316,16.36821-49.02218,29.77505-76.39477,38.19738-5.41201,1.66523-14.76159,9.19157-16.5522,3.81974-.75922-2.27765,3.1723-3.65247,5.09298-5.09298c15.57971-11.68478,34.06949-19.65017,50.92984-29.28466c2.97091-1.69766,5.85222-3.56273,8.91272-5.09298c3.73871-1.86936,7.62967-3.41756,11.45921-5.09298c12.48346-5.46152,26.03877-10.29031,39.47063-12.73246c2.53998-.46181,8.06389-3.81974,7.63948-1.27325-2.52993,15.17958-66.96915,36.15929-80.2145,39.47063-13.6427,3.41068-27.95237,7.63411-42.01712,8.91272-2.53603.23055-7.63948,2.54649-7.63948,0c0-19.8105,133.37241-48.27724,154.06278-49.6566c3.83473-.25565,8.74163-3.99083,11.45922-1.27325c5.60646,5.60646-15.1785,4.64625-22.91843,6.36623-3.34026.74228-6.78766.87344-10.18597,1.27325-17.71289,2.08387-35.68962,5.18045-53.47634,6.36623-2.96433.19762-5.9484-.19762-8.91272,0-6.40834.42722-24.84321-.32577-19.09869,2.54649c9.98414,4.99207,75.02483-8.14669,86.58073-10.18597c8.94724-1.57892,11.87872-1.3975,21.64518-2.54649c5.07563-.59713,18.34534-5.36176,15.27895-1.27325-7.91642,10.55522-41.42235,13.5387-53.47634,16.5522-4.60343,1.15086-9.4278,1.29797-14.00571,2.54649-2.58966.70627-10.32372,2.54649-7.63948,2.54649c33.54523,0,70.27097-19.0194,104.40618-21.64518c3.41167-.26244,8.28792-4.12031,10.18597-1.27325c1.69766,2.54649-4.90208,3.72429-7.63948,5.09298-21.68912,10.84456-47.77871,12.27528-71.30178,16.5522-5.49227.99859-11.0348,1.69766-16.5522,2.54649-2.13894.32907-8.53033,1.27325-6.36623,1.27325c15.28474,0,130.59338-26.01589,133.69084-22.91843c2.01318,2.01318-5.0476,2.64161-7.63948,3.81974-15.22441,6.92019-33.25908,7.99963-49.6566,10.18597-2.97474.39663-5.95249.77987-8.91272,1.27325-2.13466.35578-4.24415.84883-6.36623,1.27325-7.62492,1.52498-15.13392,3.22093-22.91843,3.81974-2.11583.16276-7.86677,1.50054-6.36623,0c3.61021-3.61021,131.65911-27.11741,134.96409-25.46492c1.85783.92892-.11295-.9267-29.28466,6.36623-18.04789,4.51197-35.13553,4.83783-53.47634,6.36623-5.93638.4947-11.86849,1.27325-17.82545,1.27325-2.12208,0-7.03729,2.01318-6.36623,0c2.60003-7.8001,79.30989-10.18597,89.12723-10.18597c11.34433,0,23.07297-.75364,34.37764,0c2.5759.17173,8.79401-1.03582,7.63948,1.27325-4.25041,8.50083-35.57374,4.27572-44.56361,5.09298-3.24792.29527-30.55791,2.52942-30.55791,1.27325c0-2.1641,4.25017-.8198,6.36623-1.27325c14.23613-3.0506,28.81602-4.66337,43.29037-6.36623c12.59216-1.48143,25.54346-2.97614,38.19738-3.81974c2.54085-.16939,7.63948-2.54649,7.63948,0c0,2.68424-5.04982,1.84022-7.63948,2.54649-14.0832,3.84087-29.04779,4.07883-43.29037,7.63948-2.09949.52487-6.36623,1.27325-6.36623,1.27325s4.25755-.78663,6.36623-1.27325c17.11734-3.95016,33.88856-7.52661,50.92984-11.45922c2.10868-.48662,6.36623-3.43735,6.36623-1.27325c0,3.75909-31.52348,11.35666-35.65089,12.73246-5.09298,1.69766-19.07504,1.2969-15.27895,5.09298c1.82548,1.82548,5.11516-.73232,7.63948-1.27325c20.58476-4.41102,50.21643-4.73628,68.75529-14.00571.40557-.20278,9.66971-10.70222,11.45921-8.91272c4.46141,4.46141-9.0789,8.79102-14.00571,12.73246-17.3453,13.87624-34.51055,29.07262-53.47633,40.74387-5.02152,3.09017-12.00835,13.81863-15.27895,8.91272-1.48895-2.23342.82809-5.57739,2.54649-7.63948c15.3703-18.44436,47.27347-41.16538,68.75529-50.92984c2.59187-1.17812,5.09298-5.09298,7.63948-3.81974c4.94949,2.47475-5.17347,9.92652-8.91272,14.00571-6.62875,7.23136-48.00405,47.1101-54.74958,47.1101-2.40086,0,3.23482-3.57267,5.09298-5.09298c2.82569-2.31193,5.94182-4.24415,8.91272-6.36623c3.72147-2.65819,34.39867-26.71714,36.92414-24.19168c3.84324,3.84324-6.34272,8.88922-10.18597,12.73246-19.23786,19.23786-48.05174,34.51842-72.57503,45.83686-5.17004,2.38617-12.12042,12.37728-15.27895,7.63948-1.57927-2.3689,1.9046-5.53282,3.81974-7.63948c3.44677-3.79145,62.40745-31.18533,66.2088-29.28466c5.16324,2.58162-5.61041,10.48605-10.18597,14.00571-26.18961,20.14585-58.34351,36.17461-87.85398,50.92984-4.93491,2.46746-14.1969,11.77649-15.27895,6.36623-1.62866-8.14332,46.74511-33.95972,54.74958-38.19738c3.35494-1.77614,8.48831-8.48831,10.18597-5.09298c1.89804,3.79609-4.49906,7.33104-7.63948,10.18597-15.08953,13.71776-43.14991,26.45564-62.38906,34.37764-9.9265,4.08738-19.22231,8.1051-29.28466,11.45922-2.16826.72275-6.36623,4.83204-6.36623,2.54649c0-3.00107,4.02279-4.49148,6.36623-6.36623c4.43984-3.55188,66.66152-29.69492,67.48204-29.28466c2.21348,1.10674-1.94077,4.75569-3.81974,6.36623-23.07757,19.78077-57.33474,29.98512-85.30749,40.74388-6.26331,2.40896-19.09869,13.07683-19.09869,6.36623c0-3.65096,5.87494-4.34104,8.91272-6.36623c21.07798-14.05199,51.6873-22.2459,76.39477-26.73817c2.53998-.46181,6.09051-3.33854,7.63948-1.27325c3.96141,5.28188-8.38276,10.54543-14.00571,14.00571-26.87292,16.53718-65.86938,27.65193-96.7667,33.1044-7.15428,1.26252-19.34785,9.43851-21.64518,2.54649-1.15453-3.4636,3.42208-6.75368,6.36623-8.91272c16.55233-12.13837,46.55875-16.73267,66.2088-21.64518c3.39532-.84883,7.71122-5.02124,10.18597-2.54649c2.12208,2.12208-3.8418,4.74338-6.36623,6.36623-12.66438,8.14138-32.33646,13.59747-47.11011,16.5522-3.3553.67106-6.87976.39159-10.18597,1.27325-26.26788,7.00477-54.00072,16.9843-81.48775,19.09869-2.96216.22786-7.13018,2.37673-8.91272,0-1.44051-1.92068,3.00846-3.90183,5.09298-5.09298c9.40984-5.37705,18.90688-6.31828,29.28466-8.91272c22.28797-5.57199,47.14728-12.09894,70.02854-14.00571c2.5377-.21147,6.22694-2.11881,7.63948,0c1.17712,1.76567-3.16623,2.93046-5.09298,3.81974-15.80652,7.29531-34.01922,9.74823-50.92984,12.73246-26.27953,4.63756-52.42408,9.19684-78.94126,12.73246-5.9047.78729-15.94169,6.92451-17.82545,1.27325-.78258-2.34775,4.1133-2.79568,6.36623-3.81974c14.42381-6.55628,32.90538-6.5315,48.38335-8.91272c3.45579-.53166,45.83686-7.17075,45.83686-6.36623c0,6.4645-11.53674,6.14216-17.82545,7.63948-32.63477,7.77018-66.34335,11.23147-99.3132,17.82545-2.53148.5063-5.814,3.09873-7.63948,1.27325-1.28291-1.28291,25.14675-10.96955,26.73817-11.45921c14.96701-4.60523,30.5891-6.59826,45.83686-10.18597c3.40678-.8016,7.27394-4.48784,10.18597-2.54649c2.26117,1.50744-3.93555,3.87764-6.36623,5.09298-10.05808,5.02904-22.14309,6.97837-33.1044,8.91272-24.57519,4.3368-48.89848,9.54-73.84827,11.45922-2.53899.19531-6.50065,2.27765-7.63948,0-1.0737-2.14739,2.98528-3.94333,5.09298-5.09298c13.75899-7.5049,32.2975-7.79492,47.11011-12.73246c2.16826-.72275,6.36623-.26095,6.36623-2.54649c0-2.1641-4.24415.84883-6.36623,1.27325-6.78489,1.35698-13.56598,2.58229-20.37194,3.81974-8.59042,1.56189-61.93319,14.46158-64.93555,11.45921-1.61613-1.61613,4.16862-1.9186,6.36623-2.54649c3.76236-1.07496,7.59954-1.90321,11.45922-2.54649c5.81399-.969,33.87743-6.86644,38.19738-2.54649c7.10363,7.10363-32.79716,7.50777-34.37764,7.63948-16.08027,1.34002-32.20241,3.8483-48.38335,5.09298-2.53899.19531-6.0487,1.98848-7.63948,0-4.91773-6.14717,24.04045-16.7014,26.73817-17.82545c4.3801-1.82504,16.08776-9.72153,12.73246-6.36623-4.5016,4.5016-9.90801,8.04134-15.27895,11.45921-2.40196,1.52852-4.93851,4.72006-7.63948,3.81974-2.01318-.67106,2.51691-3.41792,3.81974-5.09298c7.59859-9.76961,16.72975-18.18607,26.73817-25.46492c2.00142-1.45558,4.41278-2.30039,6.36623-3.81974c7.13244-5.54745,49.4896-45.36096,53.47634-44.56361c6.00796,1.20159-22.49242,25.32212-24.19168,26.73817-7.30912,6.09094-65.08096,45.18732-71.30178,40.74387-2.41753-1.7268-1.32863-6.25546,0-8.91272c11.24322-22.48643,70.16246-53.5433,92.94697-64.93555c3.0605-1.53025,6.06566-6.99103,8.91272-5.09298s.04281,7.02743-1.27325,10.18597c-9.45417,22.69-55.24457,41.62799-76.39477,52.20309-2.54649,1.27325-5.27058,5.39901-7.63948,3.81974-2.97253-1.98168,27.29038-27.59719,29.28466-29.28466c16.40923-13.88474,30.82784-29.33414,47.11011-43.29037c5.09506-4.3672,12.82983-17.04277,16.5522-11.45921c1.57927,2.3689-2.13609,5.34359-3.81974,7.63948-8.45715,11.53247-72.98363,76.39476-84.03424,76.39476-5.70992,0,7.63948-8.48831,11.45921-12.73246c8.94718-9.94132,20.13462-17.2752,30.55791-25.46492c3.0768-2.41748,5.87585-5.17202,8.91272-7.63948c3.75568-3.05149,7.61525-5.97322,11.45922-8.91272c31.08223-23.76876,60.57956-43.65887,95.49346-61.11581c4.58683-2.29341,10.92877-10.46881,14.00571-6.36623c1.61054,2.14739-1.0186,5.43252-2.54649,7.63948-12.53954,18.11267-37.07949,34.34837-54.74958,47.11011-6.20271,4.47974-12.73246,8.48831-19.09869,12.73246-2.05911,1.37274-8.20134,5.48008-6.36623,3.81974c26.33373-23.82576,56.74201-46.16182,87.85398-63.6623c11.55149-6.49771,23.16864-10.82101,35.65089-15.27895c2.15239-.76871,5.64348-4.71475,6.36623-2.54649.85938,2.57813-3.26494,4.35538-5.09298,6.36623-19.0738,20.98118-45.78839,34.53184-70.02854,48.38335-9.33255,5.33288-18.04404,11.12588-28.01141,15.27895-5.09298,2.12208-15.27895,11.88363-15.27895,6.36623c0-18.18604,83.71896-66.15387,99.31319-72.57503c10.60316-4.36601,21.12204-8.61357,31.83115-12.73246c4.13568-1.59065,13.94976-8.08028,12.73246-3.81974-8.57685,30.01897-102.54706,63.98908-131.14435,68.75529-.85366.14228-16.41336,2.79641-16.5522,2.54649-11.47695-20.65851,111.19837-68.28044,128.59785-73.84827c12.36502-3.95681,25.41937-7.79009,38.19738-10.18597c2.94967-.55306,5.94655-.81691,8.91272-1.27325c4.68993-.72153,15.50624-7.0481,14.00571-2.54649-4.00586,12.01757-80.82749,35.51884-94.22021,38.19738-8.14756,1.62951-15.98163,3.72464-24.19168,5.09298-4.68055.78009-17.36101,5.90179-14.00571,2.54649c19.46978-19.46978,131.18097-34.67429,160.42901-36.92414c1.37533-.10579,13.71444-2.83776,15.27895-1.27325c1.53025,1.53025-4.31318.5889-6.36623,1.27325-8.02246,2.67415-15.86394,6.16988-24.19168,7.63948-21.15325,3.73293-42.66684,4.41369-63.6623,8.91272-6.86419,1.4709-14.6476,3.23661-21.64518,3.81974-2.5377.21147-10.18597,0-7.63948,0c51.79802,0,104.00067-17.82545,156.60927-17.82545c2.54649,0,6.50065-2.27765,7.63948,0c.58104,1.16209-27.13333,5.96286-29.28466,6.36623-19.75949,3.7049-41.00227,6.2028-61.11581,7.63948-10.16366.72598-20.39432.54728-30.55791,1.27325-2.1586.15419-8.30186,2.24106-6.36623,1.27325c32.76149-16.38074,80.29023-14.53015,115.86539-21.64518c11.05901-2.2118,21.9443-3.49868,33.1044-5.09298c7.60924-1.08703,29.50954-6.50116,22.91843-2.54649-3.91968,2.35181-8.37355,3.71648-12.73246,5.09298-31.2568,9.87057-66.5245,16.3663-99.3132,19.09869-5.07539.42295-14.44167,5.02369-15.27895,0-.54495-3.26969,3.65065-5.73857,6.36623-7.63948c18.16468-12.71527,59.81959-14.14463,81.48775-16.5522c8.89829-.9887,17.80255-1.98802,26.73817-2.54649c2.54153-.15885,9.44012-1.80064,7.63948,0-8.6403,8.6403-94.69275,21.83387-112.04566,22.91843-2.96512.18532-7.58409,2.65726-8.91272,0-1.20043-2.40086,5.11685-1.62917,7.63948-2.54649c12.36846-4.49762,26.42285-5.77551,39.47063-7.63948c4.22245-.60321,8.48831-.84883,12.73246-1.27325c33.19173-3.31917,66.21193-8.5948,99.3132-12.73246c3.81357-.4767,8.74163,1.44434,11.45921-1.27325c2.40086-2.40086-6.79065,0-10.18597,0-5.95695,0-11.94954.29393-17.82544,1.27325-23.22791,3.87132-46.57891,4.8807-70.02854,7.63948-3.02106.35542-34.37765,5.00727-34.37765,3.81974c0-1.31617,26.41852-7.57954,26.73817-7.63948c10.94691-2.05255,108.94757-16.74297,113.3189-10.18597c1.37274,2.05911-1.97009,4.7221-3.81974,6.36623-11.35635,10.09453-36.89566,11.5365-50.92984,15.27895-2.7982.74619-40.74388,9.12848-40.74388,8.91272c0-2.47475,4.06849-2.90064,6.36623-3.81974c15.10176-6.0407,32.65275-8.79981,48.38335-12.73246c6.39198-1.59799,12.65625-3.71246,19.09869-5.09298c2.11606-.45344,6.36623-3.43735,6.36623-1.27325c0,4.20971-17.46807,7.85677-20.37194,8.91272-.69824.25391-21.64518,9.25837-21.64518,7.63948c0-1.72169,24.70755-9.5091,26.73817-10.18597c4.1241-1.3747,29.5478-11.758,33.1044-8.91272c4.44637,3.5571-4.39832,10.59728-7.63948,15.27895-18.57084,26.82455-42.62812,50.43316-68.75529,70.02854-5.56874,4.17656-11.63008,17.65458-16.5522,12.73246-4.56684-4.56684,11.83573-9.7376,12.73246-10.18597c2.21348-1.10674,4.61632-5.56965,6.36623-3.81974c1.11697,1.11697-28.30643,20.21243-30.55791,21.64518-3.87304,2.46466-11.45921,12.23023-11.45921,7.63948c0-6.88293,27.69291-19.31077,33.1044-22.91843c2.26117-1.50744,8.28785-3.17136,6.36623-5.09298-2.01318-2.01318-5.14005,2.45641-7.63948,3.81974-13.62233,7.43036-27.09802,14.29741-40.74387,21.64518-16.88771,9.09338-37.41219,20.38929-56.02283,25.46492-2.08785.56941-6.36623,1.27325-6.36623,1.27325s8.53033-1.27325,6.36623-1.27325c-3.00107,0-5.93483.90101-8.91272,1.27325-27.6245,3.45306-54.78695,12.74314-81.48775,20.37194-12.48336,3.56668-27.89599,1.83426-42.01712,5.09298-19.41944,4.48141-39.65441,5.85431-58.56932,12.73246-2.14794.78107-7.63402.6448-6.36623,2.54649.35722.53583,32.1896,5.64934,31.83115,6.36623-1.15453,2.30907-5.08788.88069-7.63948,1.27325-22.26539,3.42544-44.99913,3.55587-67.48204,6.36623-6.79065.84883-13.54584,2.05891-20.37194,2.54649-4.67591.33399-17.90621,3.87358-14.00571,1.27325c9.38916-6.25944,22.4737-5.09298,33.1044-5.09298c5.94181,0,20.48271-5.31452,17.82545,0-2.20533,4.41066-69.05857,2.84099-82.761,3.81974-5.51964.39426-14.80229,6.52298-16.5522,1.27325-.70928-2.12783,11.3412-6.33083,11.45921-6.36623c4.75254-1.42576,32.43232-47.56689,53.47634-59.84257c4.09872-2.39092,11.5816-10.96966,12.73246-6.36623c2.90679,11.62716-38.27464,29.84031-45.83686,34.37765-2.44387,1.46632-31.22724,17.76002-31.83115,16.5522-1.27325-2.54649,2.18705-5.30707,3.81974-7.63948c22.35964-31.94234,107.58388-85.51717,142.60356-101.85969c4.64712-2.16865,10.3795-9.99244,14.00571-6.36623c3.36279,3.36279-9.6125,12.26326-10.18597,12.73246-36.09236,29.53011-77.49187,56.62125-118.41189,78.94126-.58478.31897-13.61263,8.42562-14.00571,7.63948-3.79798-7.59596,30.6795-30.33079,34.37765-33.1044c42.43208-31.82406,86.91719-54.2181,137.51058-70.02854c5.5099-1.72184,12.4703-9.17488,16.5522-5.09298c5.20453,5.20453-26.2083,25.51635-24.19168,30.55791c1.91758,4.79394,10.51289-.56063,15.27895-2.54649c14.29736-5.95723,108.78403-53.19728,118.41189-48.38335c2.21348,1.10674-4.21755,2.59192-6.36623,3.81974-7.08816,4.05038-14.34327,7.80826-21.64518,11.45921-2.54649,1.27325-5.05951,2.61576-7.63948,3.81974-13.52359,6.31101-28.71932,12.90944-43.29037,16.5522-2.50454.62613-7.01334,3.77778-7.63948,1.27325-.72787-2.91147,3.89877-4.65799,6.36623-6.36623c15.08206-10.44142,35.64443-17.67261,52.20309-25.46492c11.65548-5.48493,24.82389-9.60562,36.92414-14.00571c5.42512-1.97277,11.02963-3.4122,16.5522-5.09298c22.27382-6.77899,44.67039-11.13138,67.48204-15.27895c2.53998-.46181,7.63948-3.85486,7.63948-1.27325c0,3.0605-4.99588,3.55089-7.63948,5.09298-31.24396,18.22565-75.80164,21.01726-110.77241,28.01141-.67689.13538-13.93805,4.95767-8.91272-5.09298c6.29777-12.59554,63.66899-33.86968,78.94126-36.92414c5.42624-1.08525,14.80229-6.52297,16.5522-1.27325c3.99154,11.97461-56.87518,23.76814-63.6623,25.46492-8.51011,2.12753-16.82695,3.65332-25.46492,5.09298-2.54649.42442-9.94855,2.42778-7.63948,1.27325c11.40707-5.70353,27.05878-5.44915,39.47063-7.63948c31.3656-5.53511,63.52025-12.73246,95.49346-12.73246c6.36623,0,19.09869-6.36623,19.09869,0c0,3.23225-5.86878,2.73262-8.91272,3.81974-16.9393,6.04975-37.10822,8.34603-54.74958,11.45921-8.45212,1.49155-17.01433,2.28327-25.46492,3.81974-.87124.15841-15.74502,3.60357-15.27895,1.27325c3.50484-17.52419,150.15327-28.40969,159.15576-14.00571c1.31161,2.09858-1.76063,4.99349-3.81974,6.36623-11.55902,7.70601-68.35478,3.81974-85.30749,3.81974-2.12208,0-5.18911,1.76567-6.36623,0-1.43202-2.14804.0195-5.38274,1.27325-7.63948c5.23881-9.42985,72.89048-42.97492,77.66801-38.19738c9.88286,9.88286-36.6322,42.87309-43.29037,47.11011-4.87018,3.09921-18.62385,6.72236-14.00571,10.18597c5.49682,4.12261,65.32958-11.82556,81.48775-5.09298c11.82621,4.92759,2.91047,18.8803-3.81974,22.91843-1.95984,1.1759-7.98236,4.16262-6.36623,2.54649c3.90139-3.90139,12.44027-11.09736,15.27895-6.36623c5.89142,9.81904-37.07979,26.81599-42.01712,29.28466-23.64929,11.82465-41.01845,30.9773-63.66231,44.56361-21.28167,12.769-48.05664,15.59222-68.75529,28.01141" transform="translate(.000001 0)" fill="none" stroke="#000" stroke-width="3.2"/><path d="M243.86952,518.88218c-10.42368,12.50842-19.2896,25.92936-27.4833,39.97571-1.22344,2.09733-2.49848,4.16414-3.74772,6.2462-2.49848,4.16414-5.3237,16.8359-7.49544,12.49241-.95696-1.91393,17.90564-52.46777,19.98785-57.46508.86248-2.06996,2.49848-6.24621,2.49848-6.24621s-4.99696,12.49241-4.99696,12.49241c-7.37102,18.42754-17.66506,35.41796-24.98482,53.71736-2.07488,5.18719-4.84676,10.0719-7.49544,14.99089-1.32434,2.4595-1.7725,9.47067-3.74772,7.49545-2.14362-2.14362,1.3043-5.95826,2.49848-8.74469c12.15191-28.35445,31.6846-61.66638,53.71736-83.69914c1.47224-1.47224-2.55374,3.29127-3.74772,4.99696-1.7327,2.47528-7.18063,10.61353-8.74469,13.74165-3.11053,6.22105-6.38164,11.46889-9.99393,17.48937-6.96804,11.6134-14.98317,22.47475-22.48633,33.7295-1.34686,2.02029-1.44424,7.01403-3.74772,6.2462-2.37027-.79009-.68639-5.0931,0-7.49545c5.50513-19.26796,22.11432-43.99268,33.7295-59.96356c3.13654-4.31274,5.55685-15.45046,9.99393-12.49241c2.07886,1.38591.5235,5.05242,0,7.49545-3.94773,18.42277-16.64599,38.98648-26.23406,54.9666-1.72728,2.8788-3.30535,5.84478-4.99696,8.74469-1.22344,2.09733-5.46464,7.96312-3.74772,6.2462c2.77298-2.77298,41.47903-65.59573,33.7295-46.22191" transform="translate(0 0.000001)" fill="none" stroke="#000" stroke-width="3.2"/><path d="M392.52918,505.14053c0,19.57914-3.05829,37.08837-6.2462,56.21584-.69814,4.18882-.14289,16.0258-2.49848,12.49241-4.90541-7.35812,1.86501-35.48829,2.49848-43.72343.22583-2.93582.80151-5.83444,1.24924-8.74469.77031-5.00698-2.03259-17.25642,2.49848-14.99089c3.15201,1.576-4.09494,43.86306-6.2462,52.46812-1.4417,5.7668-3.55526,11.72257-4.99696,17.48937-.51498,2.0599-1.24924,8.36951-1.24924,6.24621c0-19.07684,8.19529-40.68866,13.74165-58.71432.82816-2.69151,6.9935-31.39834,7.49544-31.23102c2.79339.93113.83283,5.82979,1.24924,8.74469c1.21354,8.49477.08968,76.29337,1.24924,77.45293c4.12228,4.12228.7231-11.7046,0-17.48937-.41641-3.33131-.80554-6.66614-1.24924-9.99393-1.93717-14.52879-5.12203-29.10923-6.2462-43.72343-.19162-2.49112-2.49848-7.49544,0-7.49544c2.53295,0,.79613,5.00336,1.24924,7.49544c2.52152,13.86834,4.16686,28.36244,4.99696,42.47419.36679,6.23543,0,12.49241,0,18.73861c0,2.08207-1.47225,7.71845,0,6.24621c3.66313-3.66313-3.60289-67.53142-1.24924-68.70825c5.42298-2.71149,3.74791,11.55635,4.99696,17.48937c3.80621,18.07949,6.87061,37.789,13.74165,54.9666c1.61462,4.03654,3.74772,12.49241,3.74772,12.49241s-2.49848-8.32827-3.74772-12.49241c-6.34748-21.15828-14.87361-41.80962-18.73861-63.71128-.94354-5.34675-.75769-10.83306-1.24924-16.24013-.22932-2.52254.54182-9.28651-1.24924-7.49544-2.06114,2.06114,0,5.82979,0,8.74469c0,18.37748-2.67814,35.53441-3.74772,53.71736-.34234,5.81973,0,11.65958,0,17.48937c0,2.49848,1.76669,9.26214,0,7.49545-6.68798-6.68799-1.24924-40.48621-1.24924-49.96963c0-.97935,1.7882-27.83844,2.49848-27.4833c2.26553,1.13277,1.24924,4.9625,1.24924,7.49545c0,19.05787-4.80164,39.29206-9.99393,57.46508-1.66565,5.82979-3.8079,11.54404-4.99696,17.48937-.41641,2.08207-1.24924,8.36951-1.24924,6.24621c0-23.76554,5.36496-51.29638,8.74469-74.95445.00425-.02975,1.24924-14.99089,1.24924-14.99089s0,12.49241,0,18.73861c0,22.89362-1.24924,45.91834-1.24924,68.70825c0,2.94449-1.38439,7.42787,1.24924,8.74469c3.88851,1.94426,3.43798-8.15597,3.74772-12.49241c1.47994-20.71915,2.43828-42.2334,7.49545-62.46204c1.24924-4.99696-1.40303-14.99089,3.74772-14.99089c2.1233,0,1.108,4.12761,1.24924,6.24621c1.23592,18.53877,1.19975,39.09768-1.24924,57.46508-.99672,7.47542-2.49848,30.02791-2.49848,22.48634c0-2.53295.86409-4.99195,1.24924-7.49545.78321-5.09086,1.83478-10.20854,3.74772-14.99089c2.01048-5.02619,4.11377-10.01521,6.2462-14.99089" transform="translate(0 0.000001)" fill="none" stroke="#000" stroke-width="3.2"/><path d="M522.45023,422.69064c14.98303,4.99434,29.13399,11.41044,43.72343,17.48937.76965.32069,19.98785,6.72374,19.98785,6.2462c0-2.42809-4.1146-2.58503-6.24621-3.74772-15.31645-8.35442-30.0955-19.51472-46.22191-26.23406-2.43104-1.01293-5.63319-4.36074-7.49545-2.49848-1.66565,1.66566,3.09191,3.61147,4.99696,4.99696c18.30491,13.31266,41.35878,24.36362,62.46204,32.48026c2.45809.94542,7.49544-.13515,7.49544,2.49848c0,2.53295-5.11006-.39732-7.49544-1.24924-11.05869-3.94953-21.99304-9.74728-32.48026-14.99089-5.3327-2.66635-10.8124-5.0283-16.24013-7.49545-2.04146-.92793-8.25192-3.50134-6.2462-2.49848c23.90821,11.95411,47.01968,26.31397,71.20673,37.47723c2.39123,1.10364,5.13985,3.67628,7.49545,2.49848c1.86226-.93113-3.29127-2.55373-4.99696-3.74772-6.14998-4.30498-12.33302-8.57788-18.73861-12.49241-11.82878-7.2287-22.99509-15.49587-34.97874-22.48633-4.19466-2.44689-15.92624-4.06161-12.49241-7.49545c1.58566-1.58566,4.32331,1.34475,6.2462,2.49848c15.11433,9.0686,37.34649,38.72647,56.21584,38.72647c2.24246,0-4.24049-1.49563-6.2462-2.49848-5.49918-2.74959-10.64295-6.20051-16.24013-8.74469-13.42831-6.10378-25.90348-12.79863-39.97571-17.48937" fill="none" stroke="#000" stroke-width="3.2"/></g><g transform="matrix(.56667 0 0 0.56667 607.051247 349.262928)"><path d="M1113.7768,764.30863c-15.6999-94.19939,67.37754-176.2704,138.27452-221.84704c23.61239-15.1794,46.76561-30.61956,71.41651-44.06551c9.72768-5.30601,19.2961-11.12943,28.87051-16.7145c2.55107-1.48812,7.5975-7.51188,7.5975-4.5585c0,6.48637-9.7227,8.67363-15.195,12.156-60.64424,38.59178-134.93084,60.43208-191.45703,104.84552-37.9107,29.78697-64.95311,79.69637-68.37751,127.63802-.43304,6.06255-5.64328,15.97669,0,18.234c3.01122,1.20449,5.54379-3.56792,7.5975-6.078c11.08578-13.54928,16.4695-33.64481,25.8315-48.62401c27.11208-43.37933,55.09241-86.13946,94.20902-120.04052c27.51333-23.84488,57.44266-47.32906,88.13101-66.85801c13.6176-8.66575,26.88626-17.2544,39.50701-27.351c1.97755-1.58204,8.6105-4.5585,6.078-4.5585-10.38605,0-150.10372,107.55772-164.10603,121.56002-21.52069,21.52069-42.83896,45.22806-60.78001,69.89701-20.57542,28.2912-30.80516,61.47194-48.62401,91.17001-.09074.15123-8.23463,15.11662-10.6365,13.6755-16.00583-9.6035,35.55824-72.77236,44.06551-82.05301c40.79627-44.50503,98.27255-65.57302,148.91103-95.72852c31.87532-18.98193,62.90986-39.34287,94.20902-59.26051c2.13657-1.35964,3.9958-3.11698,6.078-4.5585c4.50449-3.11849,9.06699-6.15439,13.6755-9.117c2.48432-1.59706,9.68585-2.47015,7.5975-4.5585-3.16157-3.16157-58.30542,18.51621-66.85801,22.7925-69.30128,34.65064-119.15229,74.40899-150.43052,147.39153-5.66209,13.21154-13.31649,25.98385-18.234,39.50701-1.08652,2.98794-12.156,36.46801-12.156,36.46801s2.94423-12.18048,4.5585-18.234c6.41151-24.04315,15.65268-46.44316,27.351-68.37751c32.29697-60.55683,84.19846-96.98008,136.75502-138.27452c15.74563-12.37156,33.80923-22.98262,51.66301-31.9095c6.22551-3.11275,12.0085-7.52375,18.234-10.6365c2.43963-1.21981,7.5975-5.76659,7.5975-3.039c0,2.95338-5.065,3.039-7.5975,4.5585-55.15938,33.09563-119.55723,64.85522-165.62553,110.92352-24.8907,24.8907-44.54197,56.24084-59.26051,88.13101-5.85273,12.68091-10.98179,25.90048-18.234,37.98751-1.30296,2.1716-2.76775,7.86875-4.5585,6.078-4.19425-4.19425,22.16103-57.00242,25.83151-63.81901c36.60657-67.98364,94.30227-121.62219,158.02803-164.10603c17.43806-11.62537,36.07782-21.45572,53.18251-33.42901c8.06039-5.64227,15.99739-11.42339,24.312-16.7145c2.49165-1.5856,8.3138-7.4237,7.5975-4.5585-.71317,2.85269-163.22258,157.8631-183.85953,185.37903-21.12748,28.16998-39.35231,64.7713-48.62401,98.76752-5.02506,18.42522-11.73959,36.46065-16.7145,54.70201-.71768,2.63148-.31141,7.5975-3.039,7.5975-7.27452,0-1.11935-32.73683,0-36.46801c3.41719-11.39064,6.21012-23.88255,10.6365-34.94851c29.18078-72.95195,80.36619-129.77783,139.79402-179.30103c18.17437-15.14531,34.76429-32.36994,53.18251-47.10451c7.58821-6.07057,15.15436-11.98461,22.7925-18.234c2.51009-2.05371,10.49829-4.62761,7.5975-6.078-3.28119-1.6406-49.25348,30.07089-56.22151,34.94851-56.87932,39.81552-116.20604,81.55762-151.95003,142.83302-11.79102,20.21317-23.58935,39.46075-33.42901,60.78001-4.72124,10.22935-6.85617,18.47459-10.6365,28.8705-.93213,2.56337-4.96769,9.5262-3.039,7.5975c19.1728-19.1728,29.22558-53.97018,47.10451-75.97501c62.73525-77.21262,165.26275-169.10844,252.23704-218.80804" fill="none" stroke="#000" stroke-width="3.2"/><path d="M1417.67685,487.75958c-16.27427-5.42476-32.46378-8.82211-47.10451-18.234-95.49967-61.39264,47.25329-117.8515,62.29951-50.14351c19.36736,87.1531-152.89159,86.92157-124.59902,9.117c17.87994-49.16985,125.88664-45.10051,106.36502,21.273-7.59881,25.83597-73.68013,62.73411-85.09201,22.7925-11.17368-39.10789,75.10936-95.28647,85.09201-65.33851c14.92608,44.77823-71.82567,85.86622-82.05301,57.74101-12.1268-33.3487,66.85801-58.50907,66.85801-13.6755c0,7.67266-1.01865,16.00992-7.5975,21.273-37.39848,29.91879-95.51119-66.23784-48.62401-72.93601c13.10067-1.87153,24.29895.24237,34.94851,9.117c56.97861,47.48218-57.26232,104.52274-75.97501,57.74101-13.85-34.62501,103.66957-72.07714,118.52102-34.94851c17.3469,43.36725-85.04311,75.55003-100.28702,50.14351-17.53438-29.22396,44.21094-74.34644,68.37751-56.22151c28.55467,21.416-19.58748,76.81777-48.62401,62.29951-39.39553-19.69777,38.28796-94.28152,69.89701-48.62401c29.3406,42.38086-38.1456,91.69262-66.85801,48.62401-24.77175-37.15762,28.80151-90.65511,66.85801-69.89701c50.7945,27.70609-45.58501,94.76907-45.58501,22.7925c0-44.51481,75.38751-33.21982,65.33851,13.6755-10.19597,47.5812-122.23928,39.91796-106.36502-28.8705c16.16463-70.04672,109.9241-24.55264,88.13102,36.46801-23.50696,65.81951-130.15515,1.10335-95.72852-48.62401c29.92857-43.23015,119.12977,17.14729,89.65052,59.26051-16.64922,23.78459-66.23454,2.88296-53.18251-25.8315c16.72401-36.79281,90.41421-14.11641,65.33851,28.87051-18.18431,31.1731-82.67008,19.70716-89.65052-15.195-10.3692-51.84599,100.08209-33.12161,66.85801,16.7145-30.65916,45.98875-122.99295-45.58501-59.26051-45.58501" fill="none" stroke="#000" stroke-width="3.2"/><path d="M1326.50684,469.52558c-29.07718,29.07718-202.59014,91.1997-218.80804,42.54601-19.90079-59.70236,217.39212-91.31115,250.71754-94.20902c11.72071-1.01919,80.18738-8.01986,82.05301,10.6365c1.95965,19.59651-44.31695,31.97237-56.22151,34.94851-26.91283,6.72821-222.38747,32.88857-235.52254,19.7535-10.34825-10.34825,21.68011-33.87871,28.8705-37.98751c22.1915-12.68086,174.62973-60.04878,188.41803-37.98751c30.05309,48.08493-225.07254,150.29751-241.60054,104.84552-27.45103-75.49034,221.3064-144.55735,230.96404-86.61151c11.08937,66.53621-179.41597,87.60494-220.32754,89.65051-14.26547.71327-63.81901,6.24352-63.81901-18.234c0-65.47845,147.95306-93.40137,194.49603-95.72852c15.01078-.75054,68.32291-10.40678,75.97501,10.6365c18.63075,51.23456-211.56195,88.24683-220.32754,75.97501-4.35132-6.09184,3.5439-14.61386,6.078-18.234c19.50082-27.85832,170.41473-82.83268,177.78153-34.94851c9.38695,61.01519-209.82807,91.47634-220.32754,68.37751-30.59196-67.30231,236.88397-121.05013,240.08104-69.89701c4.51285,72.20557-217.83998,103.74264-224.88604,89.65051-5.20352-10.40705,6.66822-21.81479,12.156-28.8705c42.23936-54.30775,117.18429-72.93601,182.34003-72.93601c17.29984,0,65.98498-5.04485,68.37751,21.273c5.66305,62.29351-243.35152,87.86591-253.75654,53.18251-14.73406-49.11354,139.07003-72.85084,165.62553-75.97501c6.84266-.80502,58.0096-9.73869,59.26051,1.5195c4.66291,41.96623-188.53825,88.84813-223.36654,91.17002-8.2067.54711-11.25345,2.33059-12.156-7.5975-5.90172-64.9189,163.70285-97.24802,205.13253-97.24802c15.09263,0,59.20928-8.09264,66.85801,9.117c20.21406,45.48164-177.51104,160.92117-212.73004,113.96252-41.74763-55.66351,163.68064-152.74011,199.05453-129.15752c19.57017,13.04678-16.70044,54.08155-25.8315,62.29951-38.97248,35.07523-181.35223,78.55875-197.53503,3.039-17.60619-82.16226,120.74776-102.00083,177.78153-97.24802c13.20865,1.10072,54.03175,30.80321,45.58501,45.58501-3.60143,6.30251-13.19613,1.46599-16.7145,0-27.14747-11.31145-104.84552-59.21318-104.84552-92.68952c0-59.83628,128.38392-35.95014,148.91102,41.02651c33.06781,124.00429-179.06754-83.51385-144.35253-112.44302c1.94552-1.62127,5.24613-.94055,7.5975,0c22.85333,9.14133,149.8181,137.27145,104.84552,158.02803-58.30707,26.91096-143.52387-84.40117-100.28702-127.63802c45.89674-45.89674,160.45959,56.95043,115.48202,110.92352-43.88656,52.66388-126.11852-16.73642-126.11852-83.57251c0-11.42207-1.62023-27.25028,7.5975-36.46801c42.47039-42.47039,145.59699,72.4238,107.88452,106.36502-11.54843,10.39359-26.51718,9.88065-41.02651,9.117-70.54243-3.71276-101.24282-128.25741-48.62401-147.39152c56.99062-20.72386,128.62676,123.43336,74.45551,159.54753-73.42265,48.94843-150.78934-135.242-106.36502-148.91102c43.96575-13.52792,140.29533,120.2363,109.40402,154.98903-37.23211,41.88612-176.50081-121.32124-138.27452-159.54753c33.65398-33.65398,198.20119,113.40303,150.43052,167.14503-45.65044,51.35674-166.65546-108.09082-123.07952-156.50853c45.18914-50.21015,143.07216,97.98846,98.76752,136.75502-47.68762,41.72666-218.38376-118.92162-144.35252-153.46953c48.58108-22.67117,129.33389,65.64086,150.43052,101.80652c5.36822,9.20266,30.0163,50.77458,9.117,57.74101-23.55199,7.85066-211.67567-96.28671-179.30103-136.75502c39.61872-49.52341,229.30985,107.60566,182.34003,142.83302-27.60836,20.70627-214.43418-80.25655-165.62553-153.46953c38.72963-58.09444,197.41766,62.30077,171.70353,129.15752-18.09135,47.03751-205.45201-25.2458-168.66453-92.68952c31.61726-57.96497,170.62328,28.7091,188.41803,71.41651c5.72958,13.75099,2.16777,66.85801-19.7535,66.85801-12.92378,0-1.56053-55.97532,0-65.33851c9.12866-54.77195,39.81962-118.05373,97.24802-133.71602c8.48183-2.31323,17.57055-4.95657,25.8315,0c44.16284,26.49771-44.16933,178.42502-95.72852,154.98903-45.65675-20.75307.54292-159.57456,69.89701-130.67702c60.68898,25.28707-40.50482,167.40588-98.76752,138.27452-47.5246-23.7623,29.27139-151.55678,100.28702-106.36502c59.13121,37.62895-71.45053,141.70393-94.20902,112.44302-30.816-39.62058,47.22743-180.76931,101.80652-158.02803c51.41025,21.42093,9.34213,199.24069-65.33851,176.26203-65.44339-20.13643-4.63315-179.75616,71.41651-138.27452c55.7699,30.41995-32.39293,166.82274-91.17002,127.63802-57.8463-38.5642.79963-169.98412,79.01401-150.43053c77.79076,19.44769,47.38313,166.45494-34.94851,145.87202-83.16227-20.79057-15.11503-227.87839,57.74101-185.37903c63.05614,36.78275-32.54242,219.89902-100.28702,199.05453-50.83801-15.64247,7.88505-182.20103,65.33851-177.78153c46.10744,3.54673,1.49575,169.41834-50.14351,156.50853-48.53612-12.13403,33.84036-210.90202,75.97501-179.30103c40.33297,30.24973,15.81518,217.45768-51.66301,199.05453-38.19697-10.41736-56.48055-106.91124-31.90951-133.71602c19.60435-21.38656,40.66629-41.44819,62.29951-60.78001c3.24745-2.90198,16.13279-4.43158,19.7535-3.039c57.97942,22.29978-4.5021,231.27108-94.20902,182.34003-63.29017-34.52191,35.61685-206.63872,107.88452-150.43052c65.35881,50.83463-6.20602,248.23513-91.17002,214.24954-10.5645-4.2258-8.35823-18.80015-6.078-27.351c11.43731-42.88991,155.52964-100.02608,177.78153-71.41651c6.0057,7.72162.03578,21.84244-3.039,28.87051-22.76079,52.02466-127.25071,97.5297-177.78153,60.78001-24.86474-18.08345,8.69146-53.77723,24.312-63.81901c24.24544-15.58635,174.20821-68.58344,196.01553-39.50701c34.14548,45.5273-187.70149,120.72249-206.65203,86.61151-26.66032-47.98857,153.00363-105.54435,168.66453-82.05301c41.16816,61.75223-153.47008,123.58286-161.06703,80.53351-12.66898-71.79086,186.9051-61.5184,202.09353-12.156c17.36393,56.43278-174.14897,53.33291-185.37903,12.156-16.79746-61.59071,171.46463-96.49616,183.85953-30.39c15.21548,81.14927-218.78236,56.50397-221.84704,22.7925-4.99946-54.9941,239.53444-41.39003,244.63954-27.35101c18.79178,51.67738-183.51707,55.88521-214.24954,47.10451-7.25816-2.07376-20.2794-3.94531-18.234-15.195c10.20597-56.13285,227.73103-78.49711,232.48354-16.7145c4.61091,59.94189-178.94404,47.72698-183.85953,18.234-8.32845-49.97073,153.58675-78.04913,168.66453-51.66301c35.68177,62.44311-167.78474,137.64823-208.17153,50.14351-25.34897-54.92277,178.89516-47.63785,189.93753-22.7925c15.93256,35.84825-161.10785,66.63346-167.14503,33.42901-7.08748-38.98116,137.29385-60.88943,164.10603-54.70201c3.75861.86737,9.74305.80601,10.6365,4.5585c19.33264,81.1971-246.38792,99.68301-230.96404,37.98751c14.05599-56.22397,157.1369-85.19712,199.05453-51.66301c47.33395,37.86716,23.28821,98.80272-33.429,106.36502-17.46992,2.32932-33.96942,4.5585-51.66301,4.5585-25.86676,0-51.53449-1.5195-77.49451-1.5195-3.039,0-6.9681,2.1489-9.117,0-1.82621-1.82621-.16127-5.6366,1.5195-7.5975c9.04687-10.55468,45.22744-7.5975,57.74101-7.5975c31.34488,0,149.27967-6.28123,121.56002,54.70201-23.83228,52.43102-238.87205,41.35354-212.73004-50.14351c21.33274-74.66458,239.07248-17.0783,191.45703,50.14351-45.54214,64.29479-221.89706-23.21563-192.97653-71.41651c27.6686-46.11433,195.15385,69.50376,156.50853,112.44302-20.68957,22.98841-173.88076-27.82709-162.58653-80.53351c2.68991-12.5529,19.61256-21.14217,30.39-24.312c26.0311-7.6562,57.69252-7.61462,83.57251,1.5195c28.88111,10.19333,108.4468,70.31585,83.57251,109.40402-30.14197,47.36596-207.00328-34.246-180.82053-86.61151c29.11647-58.23294,176.28951,30.28696,158.02803,98.76752-16.76866,62.88246-205.60834-33.61756-161.06703-97.24802c35.629-50.89857,161.06703,12.71045,161.06703,72.93601c0,9.191-.16331,21.6532-9.117,27.351-35.16102,22.3752-160.38361-47.86386-120.04052-92.68952c41.71466-46.34962,200.19083-17.46838,154.98903,62.29951-48.08711,84.85961-185.33364-45.2157-159.54753-82.05301c32.33319-46.19027,165.87915,47.48382,130.67702,100.28702-28.25037,42.37557-153.49524-58.93861-113.96252-86.61151c28.84904-20.19433,129.02599,66.15675,112.44302,92.68952-1.69779,2.71647-5.92175,3.26723-9.117,3.039-21.17972-1.51284-179.2393-99.66973-180.82053-115.48202-.29387-2.93872,1.97678-6.16321,4.5585-7.5975c21.076-11.70889,212.68664,83.70271,200.57403,120.04052-13.17714,39.53141-191.89215-25.65609-158.02803-86.61151c22.49944-40.49899,200.2496,21.92186,170.18403,82.05301-24.37372,48.74744-194.68808-50.28333-171.70353-79.01401c30.15926-37.69907,216.26754,30.28722,170.18403,86.61152-34.64091,42.33889-177.93604-80.72551-133.71602-104.84552c64.54849-35.20826,138.20335,104.97883,92.68952,115.48202-36.70929,8.47137-170.72386-65.05857-156.50853-112.44302c1.92506-6.41685,12.83325-12.19459,18.234-15.195c29.79836-16.55465,35.56202,50.31117,41.02651,65.33851c11.59142,31.8764,39.59584,78.20985-7.5975,101.80652-11.5296,5.7648-25.60374,4.5585-37.98751,4.5585-75.14407,0-77.34641-102.27129-39.50701-150.43052c14.5343-18.4982,38.28442-25.8315,60.78001-25.8315c99.99752,0,74.7631,193.85282,15.195,220.32754-10.21967,4.54208-15.70625-4.06149-19.7535-12.156-20.52884-41.05769-50.75307-189.98442,28.87051-183.85953c60.5429,4.65715,47.98258,170.88106-6.078,174.74253-35.66554,2.54754-103.74102-178.86541-10.6365-171.70353c82.56744,6.35134,42.95576,178.40666-6.078,159.54753-27.27392-10.48997-32.8835-163.2099,30.39-147.39152c62.64673,15.66168,11.29001,150.10511-39.50701,145.87202-39.0458-3.25382-72.91249-153.15458-13.6755-165.62553c84.69332-17.83017,76.24246,187.34527,13.6755,171.70353-38.32976-9.58244-27.85905-136.24351-19.7535-162.58653c1.48726-4.8336,3.56796-12.156,10.6365-12.156c34.50381,0,82.21731,165.06426,39.50701,179.30103-50.3938,16.79793-90.84885-180.08372-16.7145-185.37903c66.6364-4.75974,104.26261,169.59264,16.7145,174.74253-91.89617,5.40566-124.30874-164.40766-34.94851-179.30103c99.86589-16.64432,73.37936,209.33232-3.039,183.85953-55.07838-18.35946-58.99977-177.03579,12.156-168.66453c63.315,7.44882,71.80746,159.82966,12.156,174.74253-79.06335,19.76584-117.82119-173.69038-24.312-185.37903c76.58355-9.57295,95.1292,172.98764,21.273,199.05453-112.41313,39.67522-90.42131-195.16705-1.5195-189.93753c73.35025,4.31472,64.46743,184.16681-12.156,177.78153-56.63255-4.71938-114.42034-179.56505,6.078-173.22303c82.47211,4.34064,66.25383,194.90184-9.117,182.34003-55.18042-9.19674-42.62384-180.327,0-173.22303c30.2656,5.04427,61.85963,128.56864,27.351,147.39152-50.23019,27.39829-177.22871-126.39492-71.41651-179.30103" transform="translate(.000001 0.000001)" fill="none" stroke="#000" stroke-width="3.2"/></g><g transform="matrix(.832013 0 0 0.832013-3.001539 140.583357)"><path d="M158.011143,843.322641l1.519497-7.597501c12.14853-36.44558,43.03792-76.5899,66.85801-106.36502c1.78987-2.23734,3.32305-6.86513,6.078-6.078c3.26698.93342,4.04185,5.7588,4.5585,9.117c4.55953,29.63694-83.38378,28.61565-95.72852,12.156-9.53159-12.70879,8.76883-50.15932,25.8315-44.06551c10.76521,3.84472,37.1288,50.34143,31.90951,60.78001-7.66737,15.33474-40.33328-8.90344-44.06551-18.234-2.93243-7.33108-4.21633-19.69838-3.039-27.351.9306-6.0489,11.92504-12.38697,7.5975-16.7145-4.08354-4.08353-11.76907,8.01266-10.6365,13.6755c1.50842,7.54212,21.06347,19.93406,25.8315,27.351c6.75122,10.5019,14.27957,26.12422,18.234,37.98751c10.7798,32.3394-1.82642,84.97903-42.54601,51.66301-38.2738-31.31493-13.52794-115.75122,21.273-89.65052c21.30283,15.97712-16.52034,42.99861-30.39,44.06551-4.04007.31077-12.156,4.052-12.156,0c0-4.17671,8.02127-2.44833,12.156-3.039c27.81515-3.97359,59.06933,2.40571,86.61152,6.078.45094.06013,20.97364-1.46416,12.156,9.117-3.62526,4.35032-11.06088,2.71594-16.7145,3.039-34.86841,1.99248-82.63322,11.66776-92.68951-31.9095-2.95554-12.80733-2.9372-27.55461,3.039-39.50701c13.72554-27.45109,84.22204-30.25091,94.20902,3.039c3.29144,10.97147-14.12179,50.2781-28.8705,37.98751-12.07001-10.05834,52.16345-67.94856,62.29951-59.26051c27.39336,23.48002-55.94855,73.76299-82.05301,59.26051-30.34296-16.8572,68.55535-61.03888,62.29951,1.5195-2.94293,29.42934-60.58572,29.87021-80.53351,18.234-18.92044-11.03693-37.1722-48.44608-16.7145-66.85801c11.75777-10.58199,32.72246-9.117,47.10451-9.117c7.091,0,14.182,0,21.273,0c2.5325,0,10.00004-.80085,7.5975,0-17.61427,5.87142-41.85164-.82513-54.70201-13.6755-7.52372-7.52372-14.8432-18.69809-18.234-28.8705-.80752-2.42257-4.75383-27.351-7.5975-27.351-7.10907,0-2.52487,14.23539-1.5195,21.273c2.94246,20.59721,44.55064,71.96575,36.46801,88.13101-12.23792,24.47583-81.65324,35.82819-104.84552,28.87051-4.88603-1.46581-11.32603-5.52893-9.117-12.156c4.60294-13.80881,130.04915-29.66343,136.75502-25.8315c9.3679,5.35308-6.76859,16.17914-9.117,18.234-18.85399,16.49724-39.87154,23.90876-62.29951,7.5975-4.35437-3.16682-13.6231-7.6761-10.6365-12.156c3.33026-4.99539,13.62229,7.54429,13.6755,7.5975c16.74067,16.74067,46.77436,50.14351,3.039,50.14351-33.99604,0-54.74044-72.70541-50.14351-100.28702c5.4666-32.79962,70.84498-31.35538,95.72852-33.42901c2.52375-.21031,6.79665-2.40254,7.5975,0s-6.69222,2.10161-6.078,4.5585c1.32307,5.29229,11.08957,2.48574,15.195,6.078c9.00463,7.87905,13.59231,23.72968,15.195,34.94851c2.23184,15.62286,2.96903,43.5384-15.195,50.14351-1.74285.63376-14.41298,3.22213-16.7145,0-11.22592-15.71629,53.08638-36.6722,62.29951-39.50701.2513-.07732,15.195-4.5585,15.195-4.5585s-5.065,2.026-7.5975,3.039c-19.52088,7.80835-32.58463-1.83275-44.06551-18.234-8.41251-12.01787-23.64961-35.70614-9.117-48.62401.44822-.39842,16.54431-11.48135,18.234-10.6365c2.43963,1.21981-1.52601,5.32801-3.039,7.5975-7.6002,11.4003-54.75873,34.08949-63.81901,18.234-12.34379-21.60163,42.52681-1.5579,48.62401,10.6365c14.06109,28.12218-37.30142,45.86281-54.70201,51.66301-1.8354.6118-33.05226,6.27264-31.9095,4.5585c5.07202-7.60803,33.01736-7.11471,41.02651-9.117c15.08101-3.77025,96.59136-23.57242,106.36502-15.195c4.7455,4.06757,2.0082,27.56456,1.5195,33.42901-1.56505,18.78055-36.79196,42.26062-56.22151,33.429-17.20171-7.81896-48.59019-36.44546-66.85801-48.62401-2.10717-1.40478-5.13745-2.20713-6.078-4.5585-10.81678-27.04195,36.97018-79.32571,53.18251-50.14351c14.90441,26.82795-50.54512,67.59913-63.81901,56.22151-18.9115-16.20986,23.46349-72.95557,28.87051-48.62401c3.03858,13.6736-41.9936,52.83667-41.02651,56.22151c2.49564,8.73475,48.86176,7.75096,57.74101,9.117c13.67071,2.10319,27.52498,2.10368,41.02651,4.5585c3.03122.55113,8.14273,4.44232,9.117,1.5195c1.02558-3.07675-5.17352-3.92335-7.5975-6.078-15.81722-14.05975-32.37774-29.98219-42.54601-48.62401-6.6846-12.2551-11.74916-67.02907,16.7145-47.10451c29.05428,20.338,18.91524,120.04052-7.5975,120.04052-5.66284,0-.74924-12.50534,3.039-16.7145c18.54201-20.60223,81.36736.53745,75.97501,16.7145-1.013,3.039-5.95086,2.5519-9.117,3.039-49.35786,7.59352-68.06199-32.73817-25.8315-62.29951c2.4195-1.69365,5.50915-6.64685,7.5975-4.5585c2.16987,2.16987-31.12763,28.91475-30.39,30.39001c2.58265,5.16531,11.01809-3.6091,16.7145-4.5585c20.18073-3.36345,34.14037-3.37572,53.18251,4.5585c22.17889,9.2412,114.36687,60.10185,120.04052,79.01401c0,0,6.078,15.195,6.078,15.195c4.32754,0,.68783-10.22067,4.5585-12.156c6.00378-3.00189,27.79777-10.7709,31.90951-1.5195c13.67108,30.75993-47.1908,12.83884-54.70201,12.156-2.57205-.23382-7.5975,1.06315-7.5975-1.5195c0-5.90676,11.0183-4.9403,15.195-9.117c13.63816-13.63816,5.43487,29.52495-15.195,21.273-12.34627-4.93851-5.44236-47.17513,7.5975-48.62401c12.03815-1.33757,12.70198,22.31883,12.156,28.8705-.43306,5.19672-11.28488,9.98813-7.5975,13.6755c1.29462,1.29462,22.26474-10.04494,18.234,6.078-.61422,2.45689-3.67546,5.35935-6.078,4.5585-12.15739-4.05246,9.07144-22.97146,16.7145-21.273c12.3275,2.73944,55.30788,68.38714,54.70201,71.41651" transform="matrix(-.476809 0.608812-.608812-.476809 752.187003 992.332609)" fill="none" stroke="#000" stroke-width="3.2"/><path d="M163.420681,686.796594c-14.20757-14.20757-27.063151,15.963346-20.898211,27.060226c10.52469,18.94444,54.85278,21.76808,65.61983,48.68568c12.13442,30.33603-38.32047,50.21059-61.38629,37.39625-30.48228-16.9346-33.44309-57.36536,0-74.0869c32.68254-16.34127,98.48884-2.11677,134.7676-2.11677c12.59575,0,29.28091-6.78998,37.39624-16.93415c28.40568-35.5071-24.44956-121.60747-74.79249-71.26454-28.74164,28.74164,8.68247,97.92428,31.04594,122.77258c7.45562,8.28402,39.71653,29.79552,26.10681,44.45214-16.71307,17.99869-34.184,28.21582-57.15275,14.81738-5.65317-3.29768-13.9902-20.36476-21.87328-19.05092-23.12137,3.85356-29.76641,54.19875-62.79747,21.16769-5.67316-5.67316-20.60023-26.84228-19.75651-35.27948.70483-7.04832,23.23037-14.00307,18.34533-18.34533-16.38921-14.56819-68.0451-22.35893-55.74157-59.26952c1.57223-4.71668,28.65587-27.15636,31.75153-26.8124c5.54959.61662,1.19662,11.72407,2.82236,11.99502c3.68801.61467,17.43678-20.25914,20.4621-23.28446c10.99676-10.99675,67.86716-44.42899,83.25957-32.45712c13.28986,10.33655,3.26978,33.61014,13.4062,43.74655c5.66513,5.66513,31.0695,9.43181,31.75153,16.93415c1.67769,18.45453-51.0155,40.3008-33.16271,50.80245c32.77226,19.2778,74.77323,16.40014,110.77756,25.40122c3.63315.90829,33.90925,10.47464,31.75153,16.22856-.55398,1.47729-2.72556,1.65278-4.23354,2.11677-10.22869,3.14729-22.58328,3.9089-33.16271,6.3503-26.19354,6.04466-100.10593,13.13021-119.95022-4.23354-17.1987-15.04886.07243-65.7537-19.75651-67.73659-6.61637-.66164-12.13245,1.83353-18.34533,3.52795-43.57872,11.88511-8.40627,39.00819-17.63974,62.09188" transform="translate(.000001 0)" fill="none" stroke="#000" stroke-width="2.6"/></g><path d="M1433.46426,621.38874c25.67128-5.13426,66.97396-24.30832,91.11748-2.84742c37.70038,33.51145-12.46271,89.39663-52.20272,85.42263-32.80929-3.28093-47.81983-40.78496-62.64326-65.49069" fill="none" stroke="#000" stroke-width="2"/></svg>
