<svg id="eWXCnfkZQD41" xmlns="http://www.w3.org/2000/svg" xmlns:xlink="http://www.w3.org/1999/xlink" viewBox="0 0 1600 900" shape-rendering="geometricPrecision" text-rendering="geometricPrecision"><g transform="matrix(.71222 0 0 0.71222 35.164926 10.420567)"><path d="M309.96117,302.38055c22.32169,0-27.39609,26.03835-34.94851,28.8705-35.24492,13.21685-75.17612,22.38209-112.44302,27.351-7.04671.93956-18.09373,7.87804-21.273,1.5195-4.52342-9.04685,43.21949-26.81164,48.62401-28.8705c22.96553-8.74877,165.65826-58.22569,182.34003-47.10451c6.4329,4.2886-6.02792,15.03959-12.156,19.7535-18.66464,14.35742-161.51757,56.34742-171.70353,33.429-15.05218-33.86741,99.84362-82.41891,124.59902-71.41651c26.19571,11.64254-37.00785,31.01647-41.02651,31.90951-3.98629.88584-10.63942,5.31097-12.156,1.5195-1.0927-2.73174,16.41243-14.35428,18.234-15.195c38.03392-17.55412,86.49412-29.80552,127.63802-34.94851c0,0,24.312-3.039,24.31201-3.039c1.59616,3.9904-5.67877,6.53832-9.117,9.117-21.21498,15.91123-56.76695,21.40134-82.05301,27.351-7.0592,1.66099-14.182,3.039-21.273,4.5585-4.08399.87514-14.02388,6.77476-12.156,3.039c8.04715-16.0943,147.92859-33.35883,170.18403-34.94851c3.57239-.25517,8.104-4.052,10.6365-1.5195c6.26506,6.26506-14.33568,11.03275-22.7925,13.6755-37.05518,11.57974-78.22641,14.86807-117.00152,16.7145-13.7363.65411-27.3049.71235-41.02651,1.5195-4.04501.23794-13.13876,3.93102-12.156,0c5.30862-21.2345,185.5944-25.8315,208.17153-25.8315c8.76078,0,59.21765-3.23188,62.29951,10.6365c4.74251,21.34131-99.63456,29.87687-110.92352,30.39-30.57551,1.3898-63.83656,5.06207-94.20902,0-3.039-.5065-8.27061,1.44288-9.117-1.5195-4.01434-14.0502,58.37663-24.16469,68.37751-25.8315c32.54874-5.42479,213.39061-20.73514,235.52254,4.5585c4.48722,5.12825-7.75907,11.81418-13.6755,15.195-21.27741,12.15852-199.05469,27.35077-205.13253,18.234-1.79899-2.69849,3.42108-5.73766,6.078-7.5975c14.89489-10.42643,43.82507-10.46051,60.78001-12.156c37.52324-3.75232,74.75396-7.5975,112.44302-7.5975c4.5585,0,11.63688-4.07725,13.6755,0c1.82621,3.65242-6.88314,4.46942-10.6365,6.078-19.67034,8.43015-42.88951,8.54355-63.81901,10.6365-4.56379.45638-9.12036.9836-13.6755,1.5195-4.05556.47713-8.1346.80984-12.156,1.5195-10.08746,1.78014-20.21684,3.36166-30.39,4.5585-3.05982.35998-12.13809.91528-9.117,1.5195c57.55079,11.51016,143.85398-2.66428,205.13253,0c15.73404.68409,38.30997-2.05152,53.18251,4.5585c2.31423,1.02855,7.0756,2.23077,6.078,4.5585-5.50531,12.84571-143.49468,26.62395-159.54753,21.273-3.039-1.013,6.00926-2.26207,9.117-3.039c16.44018-4.11004,34.85639-3.71817,51.66301-4.5585c13.68917-.68446,127.51676-2.32131,133.71602,7.5975c9.40591,15.04945-47.56963,24.9914-56.22151,27.351-15.53987,4.23815-30.03262,10.04815-44.06551,18.234-10.93818,6.3806-20.21349,15.3914-30.39,22.7925-2.3885,1.73709-7.5975,4.5585-7.5975,4.5585s5.178-2.86485,7.5975-4.5585c13.81581-9.67107,28.14878-18.49117,42.54601-27.351c3.47778-2.14017,7.10923-4.02043,10.6365-6.078c2.55107-1.48812,9.117-7.091,7.5975-4.5585-22.00777,36.67961-121.54641,68.15461-161.06703,85.09201-1.6611.7119-20.89687,7.01833-21.273,6.078-1.73428-4.33571,5.81502-7.33453,9.117-10.6365c35.67578-35.67578,90.15079-54.156,133.71602-77.49451c5.99002-3.20894,12.25885-5.88046,18.234-9.117c6.18716-3.35138,12.10827-7.17413,18.234-10.6365c16.38573-9.2615,33.31633-17.41791,50.14351-25.8315c6.59223-3.29612,13.16127-7.34039,19.7535-10.6365c2.43963-1.21981,9.5262-4.9677,7.5975-3.039-28.47252,28.47252-150.28798,81.43318-191.45703,98.76752-5.19729,2.18833-51.9124,21.02361-53.18251,19.7535-2.29328-2.29328,4.94058-4.21816,7.5975-6.078c22.63634-15.84544,50.37564-26.71586,75.97501-36.46801c5.54005-2.11049,11.11512-4.13039,16.7145-6.078c31.50576-10.95853,62.58439-22.88746,94.20902-33.42901.05237-.01746,14.33762-6.27328,15.195-4.5585c3.039,6.078-12.07612,6.24332-18.234,9.117-24.28875,11.33475-48.76521,22.16911-74.45551,30.39-19.50479,6.24153-165.18939,54.65979-177.78153,47.10451-2.1716-1.30296,2.76775-4.28725,4.5585-6.078c13.1398-13.1398,39.04594-18.31192,56.22151-22.7925c13.19178-3.44133,122.75363-27.37849,127.63802-21.273c1.70391,2.12989-1.40245,5.41543-3.039,7.5975-12.94052,17.25403-43.85323,22.08064-62.29951,27.351-61.36692,17.5334-128.12757,23.64914-191.45703,31.9095-17.87153,2.33107-36.67653,4.5585-54.70201,4.5585-3.039,0-9.117,3.039-9.117,0c0-1.18628,15.23966-6.98298,16.7145-7.5975c39.63184-16.51326,85.41839-21.52796,127.63802-28.8705c6.07072-1.05578,12.18099-1.88605,18.234-3.039c14.85394-2.82932,30.53477-7.95929,45.58501-9.117c3.53506-.27193,14.07614-.85991,10.6365,0-63.12036,15.78009-133.0408,15.51734-197.53503,24.312-16.0809,2.19285-32.6979,3.42365-48.62401,6.078-3.63721.6062-10.6365-.64838-10.6365,3.039c0,1.94928,18.63314,1.5195,19.7535,1.5195c16.1379,0,164.18393.07791,165.62553,1.5195c3.30198,3.30198-9.03779,2.49339-13.6755,3.039-21.01056,2.47183-44.26104,0-65.33851,0-11.6495,0-23.299,0-34.94851,0-37.86709,0-76.26652,1.62183-113.96252-1.5195-3.56912-.29743-9.30637,1.80584-10.6365-1.5195-3.39321-8.48302,40.83741-14.8552,44.06551-15.195c57.24796-6.0261,125.12892-14.09369,182.34003-4.5585.78426.13071,16.43674.88229,9.117,9.117-23.56115,26.50629-215.90578,21.273-256.79554,21.273-5.52639,0-67.79892-3.87177-69.89701-9.117-1.42297-3.55743,23.45145-10.08726,25.8315-10.6365c53.3913-12.32107,118.37509-6.078,173.22303-6.078c3.5455,0-7.091,0-10.6365,0-12.6625,0-25.325,0-37.98751,0-39.37119,0-79.19714-4.00832-118.52102-6.078-16.14899-.84995-32.54324-3.21844-48.62401-4.5585-2.57373-.21448-9.7464-.0869-7.5975-1.5195c30.71396-20.47597,132.73535-6.078,171.70353-6.078c1.24392,0,17.22445-.49961,18.234,1.5195c1.155,2.31-5.02057,1.34771-7.5975,1.5195-5.05378.33692-10.13874-.29743-15.195,0-14.29004.84059-28.06925,2.14892-42.54601,1.5195-33.38839-1.45167-67.03577-1.78756-100.28702-4.5585-5.14747-.42896-15.195,2.12631-15.195-3.039c0-2.95338,4.79568-3.62456,7.5975-4.5585c23.89075-7.96358,54.45769-3.05427,79.01401-1.5195c3.5386.22116,10.6365,0,10.6365,0s-36.49265,1.77138-41.02651,1.5195c-25.3652-1.40918-50.79826-2.48132-75.97501-6.078-3.5455-.5065-9.03481,1.68389-10.6365-1.5195-1.32079-2.64158,4.85536-3.46164,7.5975-4.5585c13.16625-5.2665,30.27551-3.039,44.06551-3.039c11.05696,0,89.68142,3.62791,91.17002,7.5975c3.28122,8.74992-11.90017,9.87615-15.195,10.6365-58.21938,13.43524-121.33108,16.62248-180.82053,19.7535-6.983.36753-14.89296,5.46463-18.234-4.5585-5.34789-16.04367,53.97595-44.59375,62.29951-41.02651c4.39196,1.88227,2.83881,11.72339,7.5975,12.156c17.11497,1.55591,64.34203-19.78719,83.57251-24.312c15.84958-3.72931,31.8911-8.14335,47.10451-13.6755c3.01052-1.09474,9.117-3.039,9.117-3.039s-18.234,6.078-18.234,6.078c-36.31891,13.20688-77.60253,20.12909-115.48202,28.8705-1.5957.36824-18.234,3.72481-18.234,3.039c0-11.27476,83.588-34.95238,95.72852-37.98751c12.51032-3.12758,24.02575-9.04544,36.46801-12.156c6.078-1.5195,22.66407-8.98857,18.234-4.5585-21.26112,21.26112-63.08512,22.80285-89.65051,33.42901-.88249.35299-16.38937,6.72826-16.7145,6.078-1.4504-2.90079,4.81649-4.4094,7.5975-6.078c23.28671-13.97203,51.74811-19.42904,77.49451-27.35101c3.99201-1.22831,9.20263-5.99238,12.156-3.039c2.72759,2.72759-7.18635,2.83342-10.6365,4.5585-21.25091,10.62545-44.3231,14.51253-66.85801,21.273-5.53144,1.65943-16.7145,10.33349-16.7145,4.5585c0-16.50478,146.79879-63.08312,173.22303-66.85801" transform="translate(.000001 0)" fill="none" stroke="#000" stroke-width="3.2"/><path d="M372.26068,411.78457c-11.63331,29.08326-43.85957-24.06084-28.8705-33.42901c13.80022-8.62513,40.26406,26.29113,31.90951,37.98751-11.59179,16.2285-54.84109-52.44536-39.50701-59.26051c27.82468-12.36652,44.50161,68.76863,19.7535,63.81901-27.06293-5.41259-35.0796-72.88241-33.42901-92.68951.37402-4.48829,1.27714-13.13599,9.117-12.156c14.5013,1.81266,10.27491,52.67468,9.117,60.78001-.24133,1.68932-5.73933,26.17018-6.078,25.8315-4.93959-4.9396,2.55709-97.12086,9.117-101.80652c4.45815-3.18439,8.8131,8.2053,9.117,13.6755c1.32761,23.89696-2.50742,46.02255-10.6365,68.37751-2.16885,5.96433-4.6294,21.20211-9.117,16.7145-10.94975-10.94975,21.58401-112.44302,34.94851-112.44302c6.75755,0,4.5585,12.99595,4.5585,19.7535c0,28.56469-11.23172,60.89408-28.8705,83.57251-1.5548,1.99903-2.10161,6.69222-4.5585,6.078-5.91697-1.47924-1.5195-12.13493-1.5195-18.234c0-32.74943,10.91959-70.96816,33.42901-95.72852c5.58804-6.14684,13.87941-21.06909,19.7535-15.195c5.9037,5.9037-22.75911,52.37267-27.351,59.26051-3.38315,5.07473-8.77285,18.75024-12.156,13.6755-6.7885-10.18276,31.46118-75.05061,44.06551-82.05301c2.38434-1.32463,5.66881-4.96769,7.5975-3.039c21.04848,21.04848-64.05595,78.3135-85.09201,83.57251-4.45017,1.11254-11.05269,3.95517-13.6755-3.039-8.79827-23.46205,73.15677-61.09868,88.13102-66.85801c4.82102-1.85424,12.88501-7.65899,15.195-3.039c6.65342,13.30684-50.48926,58.85409-60.78001,66.85801-1.99903,1.5548-4.94543,6.82364-6.078,4.5585-5.26726-10.53452,43.55875-65.64218,51.66301-72.93601c5.065-4.5585,10.37659-18.49391,15.195-13.6755c2.17854,2.17854-.61345,6.17232-1.5195,9.117-3.79842,12.34486-69.88287,112.67221-89.65051,95.72852-13.07289-11.20533,28.34609-133.84713,59.26051-126.11852c33.12023,8.28006,26.63004,142.93284,1.5195,139.79402-13.85535-1.73192-5.8977-65.24937,24.312-69.89701c38.68101-5.95092,37.99636,66.85469,25.8315,71.41651-16.2898,6.10867-23.76852-71.42761-13.6755-74.45551c24.85734-7.4572,47.19542,88.06283,28.8705,101.80652-18.68271,14.01203-39.84421-77.94273-42.54601-89.65051-.69277-3.00202-4.08298-7.40801-1.5195-9.117c8.7711-5.8474,17.05325,13.12869,18.234,15.195c17.87625,31.28343,28.60411,76.39917,25.8315,112.44302-.19808,2.57505.93062,6.78079-1.5195,7.5975-2.80182.93394-5.90385-2.139-7.5975-4.5585-13.79407-19.70582-13.6755-62.47006-13.6755-85.09201c0-5.45517,1.34158-17.90153,6.078-15.195c13.89706,7.94117,13.6755,76.93205,13.6755,92.68951c0,12.05748-2.74727,23.29096-6.078,34.94851-.74933,2.62264-1.52601,9.86699-3.039,7.5975-2.24765-3.37147-.31077-8.11594,0-12.156.59715-7.76292,7.71717-92.80919,10.6365-95.72852c2.26514-2.26514,2.64167,5.93835,3.039,9.117c1.36624,10.92991,0,23.82783,0,34.94851c0,11.75429-12.38398,85.13001-21.273,86.61151-2.49804.41634-3.83079-3.65231-4.5585-6.078-6.31208-21.04027-1.8011-59.86481,4.5585-80.53351.94207-3.06173-.06874-8.34007,3.039-9.117c2.64615-.66154,2.65326,4.89733,3.039,7.5975c1.31781,9.22469-.41382,82.76104-18.234,80.53351-9.25333-1.15667-25.37299-74.67303-21.273-82.05301c1.43429-2.58172,4.76868-5.40715,7.5975-4.5585c17.73117,5.31935,25.93735,93.09585,6.078,88.13101-2.93289-.73322-39.06443-70.51167-41.02651-79.01401-.68335-2.96118-2.82164-7.98834,0-9.117c3.01122-1.20449,5.42793,3.66736,7.5975,6.078c8.36815,9.29794,21.20824,38.16021,16.7145,50.14351-.88922,2.37125-3.60581,5.10788-6.078,4.5585-15.26455-3.39212-42.71005-50.42847-44.06551-65.33851-.23382-2.57205-.93062-6.78079,1.5195-7.5975c10.8099-3.6033,27.61727,48.07546,28.87051,56.22151.4621,3.00366,2.82164,7.98834,0,9.117-3.01122,1.20449-5.73766-3.42108-7.5975-6.078-15.82298-22.60425-18.90016-72.66618-21.273-98.76752-.27514-3.02652-2.5286-7.43127,0-9.117c2.10717-1.40478,3.51054,3.7725,4.5585,6.078c9.1044,20.02967,7.5975,43.92917,7.5975,65.33851c0,5.59448,3.78789,18.48363-1.5195,16.7145-3.039-1.013-2.31869-5.99565-3.039-9.117-7.38681-32.00949-8.25404-67.64651-6.078-100.28702.23824-3.57356-1.46048-8.64985,1.5195-10.6365c2.45736-1.63824,6.10938,2.00744,7.5975,4.5585c8.39889,14.39811,5.2148,45.98102,3.039,62.29951-1.024,7.68-2.67934,15.27588-4.5585,22.7925-.62639,2.50554.30671,9.42371-1.5195,7.5975-6.72731-6.72731,3.60141-69.0484,4.5585-80.53351.30164-3.61974,7.35701-45.74534,7.5975-45.58501c10.3123,6.87487,2.68051,56.05048,1.5195,65.33851-.83817,6.70537-2.91955,13.19771-4.5585,19.7535-.62639,2.50554-2.6745,9.9075-1.5195,7.5975c8.34234-16.68468,17.71037-95.21223,31.9095-103.32602c7.47722-4.2727,10.98391,7.70628,12.156,10.6365c10.2676,25.66901,13.6755,50.04924,13.6755,77.49451c0,5.09026,3.03337,17.47144-1.5195,15.195-9.12725-4.56362-22.51549-83.7599-19.7535-95.72852.66409-2.87774,1.6933-6.8812,4.5585-7.5975c21.19047-5.29762,50.24738,113.65091,42.54601,136.75502-.93394,2.80182-1.60512,7.5975-4.5585,7.5975-16.8257,0-36.37554-91.97309,3.039-74.45551c30.85213,13.71206,9.14379,92.68952-9.117,92.68952-8.68799,0-1.71889-26.5225,0-30.39c1.02855-2.31423,3.039-8.104,4.5585-6.078c5.1663,6.8884.53711,17.23777,0,25.8315-.25197,4.03148-10.95126,44.74657-13.6755,44.06551-3.34643-.83661-5.55936-45.25139-4.5585-45.58501c4.43289-1.47763,9.81475,37.69485,0,36.46801-3.64828-.45604-41.45119-53.91886-41.02651-57.74101c1.47453-13.27078,33.80398,33.1076,22.7925,42.54601-2.69194,2.30738-7.4088,1.46714-10.6365,0-16.83527-7.6524-58.15294-66.67727-63.81901-85.09201-.99943-3.24816-3.52114-13.83414,1.5195-16.7145c20.80992-11.89138,37.98751,59.92748,37.98751,69.89701c0,3.86857.35485,16.51706-9.117,13.6755-18.28833-5.4865-26.14368-51.16276-27.351-66.85801-.23308-3.03005,0-6.078,0-9.117s-1.03856-6.26097,0-9.117c7.86117-21.6182,14.35925,5.56519,13.6755,6.078-5.91726,4.43795-17.79651-22.56984-19.7535-25.8315" fill="none" stroke="#000" stroke-width="3.2"/><path d="M127.62114,221.84704c-.59241-.74051-9.65099-11.90157-10.6365-13.6755-20.89518-37.61133,54.32694,22.65425,56.22151,24.312c2.15628,1.88675,8.104,4.052,6.078,6.078-2.26514,2.26514-6.2518-1.6064-9.117-3.039-5.55624-2.77812-70.97638-48.62401-48.62401-48.62401c12.07323,0,53.31534,36.14398,54.70201,48.62401.27967,2.51701-2.04556,5.76388-4.5585,6.078-11.9467,1.49334-52.80092-41.12871-63.81901-50.14351-3.06169-2.50502-9.76735-3.69543-9.117-7.5975.58879-3.53277,7.13451-2.26993,10.6365-1.5195c24.36152,5.22032,52.04495,38.47286,69.89701,54.70201c4.77017,4.33652,18.83286,9.80749,13.6755,13.6755-9.01423,6.76068-35.93222-23.18295-41.02651-27.35101-11.39578-9.32382-21.87651-19.62851-33.42901-28.8705-2.5325-2.026-9.0479-3.17721-7.5975-6.078c4.54786-9.09572,42.19726,18.78866,45.58501,21.273c3.11661,2.28551,34.26238,20.9785,33.429,24.312-.62639,2.50554-5.05651,1.9815-7.5975,1.5195-10.2736-1.86793-76.81914-51.83212-75.97501-57.74101.45303-3.17119,5.95086-3.5261,9.117-3.039c7.65675,1.17796,80.53514,61.79517,68.37751,45.58501" transform="translate(.000001 0)" fill="none" stroke="#000" stroke-width="3.2"/><path d="M341.87067,167.14503c-5.52716-33.16298-25.24012-62.97297-33.42901-95.72852-1.73728-6.94912-9.98812-19.53572-3.039-21.273c3.14635-.78659,4.46893,4.78163,6.078,7.5975c17.36848,30.39484,26.15662,72.42723,33.42901,106.36502c1.54523,7.21105,6.078,21.273,6.078,21.273s-4.2975-15.5835-4.5585-16.7145c-3.47577-15.06169-36.00298-131.38001-39.50701-133.71602-2.1489-1.4326-1.70351,5.02141-1.5195,7.5975.67267,9.41739,4.34916,20.88139,6.078,30.39001c4.61908,25.40495,10.56494,50.50966,15.195,75.97501c1.38578,7.62181,3.17272,15.17069,4.5585,22.7925.55113,3.03122,2.49377,12.03982,1.5195,9.117-8.88701-26.66104-14.24103-56.01015-19.7535-83.57251-1.7735-8.86752-3.8079-18.34382-4.5585-27.351-.21031-2.52375-2.40254-8.39835,0-7.5975c7.47835,2.49278,33.53919,70.52481,37.98751,80.53351c1.83992,4.13982,4.3955,7.94975,6.078,12.156c2.55856,6.39641,10.94936,24.62487,6.078,19.7535-7.4815-7.48151-20.87249-75.89246-24.312-89.65051-2.13322-8.53286-4.34847-17.18385-6.078-25.8315-.07536-.37678-3.27327-17.99974-4.5585-16.7145-2.5325,2.5325.65086,7.16194,1.5195,10.6365c6.99965,27.9986,10.62816,57.58244,12.156,86.61151.37364,7.09924,1.5195,21.273,1.5195,21.273s-1.05102-6.07191-1.5195-9.117c-4.01149-26.07467-9.25316-51.74655-15.195-77.49451-.58073-2.51652,1.06315-7.5975-1.5195-7.5975-5.5715,0-.58325,11.17361,0,16.7145c3.09296,29.38311,4.51827,58.87828,7.5975,88.13102c1.06178,10.08693.79687,20.27312,1.5195,30.39001.21951,3.07309,1.5195,12.19792,1.5195,9.117c0-38.99869-9.73349-81.64493-16.7145-120.04052-2.21907-12.2049-5.16255-24.29326-7.5975-36.46801-1.013-5.065-2.61005-10.04754-3.039-15.195-.29444-3.53325,0-14.182,0-10.6365c0,41.33576,13.62879,84.67164,18.234,126.11852.84087,7.56779-3.86467,17.40833,1.5195,22.7925c3.95589,3.95589,1.5195-11.12003,1.5195-16.7145c0-41.75737-2.51834-68.37751-1.5195-68.37751c2.72759,0,2.25523,4.98495,3.039,7.5975c5.69563,18.98542,9.2334,41.29599,12.156,60.78001c1.37108,9.1405,3.25138,18.20114,4.5585,27.351.35815,2.50705-1.13257,9.86264,0,7.5975c10.44601-20.89202-4.21668-110.35469-6.078-138.27452-.50538-7.58067,0-22.7925,0-22.7925s1.31608,15.6974,1.5195,16.7145c3.29976,16.49882,6.51435,73.02328,21.273,75.97501" transform="translate(.000001 0)" fill="none" stroke="#000" stroke-width="3.2"/><path d="M566.75671,153.46953c-3.82141,5.73212-7.95562,11.254-12.156,16.7145-4.8239,6.27107-9.98506,12.27978-15.195,18.234-.0558.06377-10.57307,13.6755-9.117,13.6755c4.4558,0,29.54649-56.79698,33.42901-65.33851c1.12868-2.4831.31141-7.5975,3.039-7.5975c5.92843,0-3.6248,11.31746-6.078,16.7145-6.03344,13.27358-11.00939,26.86394-18.234,39.50701-4.3533,7.61827-7.08944,11.94997-10.6365,19.7535-1.12868,2.4831-4.25881,10.03713-3.039,7.5975c11.23096-22.46191,21.52999-42.84972,37.98751-62.29951c4.40162-5.20191,12.14757-19.77036,15.195-13.6755c2.0742,4.14841-50.14351,60.60952-50.14351,68.37751c0,6.54945,3.00021-2.60578,12.156-15.195c8.66143-11.90947,18.63792-21.67692,28.8705-31.90951c1.79075-1.79075,2.76775-4.28725,4.5585-6.078c4.31269-4.31269,11.74681-17.94209,13.6755-12.156c4.62628,13.87884-47.10173,61.08169-56.22151,68.37751-2.5325,2.026-5.30422,8.37128-7.5975,6.078-2.40254-2.40254,2.9315-6.13417,4.5585-9.117c15.556-28.51933,39.1962-52.52143,57.74101-79.01401c1.69365-2.4195,1.60512-7.5975,4.5585-7.5975c2.72759,0-1.81919,5.15787-3.039,7.5975-3.06926,6.13853-7.21283,12.24259-10.6365,18.234-11.95608,20.92315-23.93558,40.65008-41.02651,57.74101-2.5325,2.5325-4.27217,8.92764-7.5975,7.5975-3.29191-1.31677-.53912-7.13223,0-10.6365c3.54043-23.0128,14.8672-45.9572,21.273-68.37751c1.62867-5.70033,4.37448-11.0361,6.078-16.7145.74212-2.47373,3.96962-8.41421,1.5195-7.5975-11.61471,3.87157-27.93921,41.91581-36.46801,51.66301-1.7184,1.96388-24.92134,28.26117-24.312,28.8705c1.92869,1.9287,5.44447-1.36442,7.5975-3.039c15.99759-12.44257,28.44781-33.22211,44.06551-47.10451c1.89281-1.6825,3.97083-5.96328,6.078-4.5585c5.04864,3.36576-14.09576,35.57889-16.7145,39.50701-7.43452,11.15179-12.72825,18.75694-10.6365,18.234c14.55091-3.63773,34.90632-42.48976,44.06551-54.70201" fill="none" stroke="#000" stroke-width="3.2"/></g><g transform="matrix(.81721 0 0 0.81721 245.637819 91.688955)"><path d="M1113.7768,764.30863c-15.6999-94.19939,67.37754-176.2704,138.27452-221.84704c23.61239-15.1794,46.76561-30.61956,71.41651-44.06551c9.72768-5.30601,19.2961-11.12943,28.87051-16.7145c2.55107-1.48812,7.5975-7.51188,7.5975-4.5585c0,6.48637-9.7227,8.67363-15.195,12.156-60.64424,38.59178-134.93084,60.43208-191.45703,104.84552-37.9107,29.78697-64.95311,79.69637-68.37751,127.63802-.43304,6.06255-5.64328,15.97669,0,18.234c3.01122,1.20449,5.54379-3.56792,7.5975-6.078c11.08578-13.54928,16.4695-33.64481,25.8315-48.62401c27.11208-43.37933,55.09241-86.13946,94.20902-120.04052c27.51333-23.84488,57.44266-47.32906,88.13101-66.85801c13.6176-8.66575,26.88626-17.2544,39.50701-27.351c1.97755-1.58204,8.6105-4.5585,6.078-4.5585-10.38605,0-150.10372,107.55772-164.10603,121.56002-21.52069,21.52069-42.83896,45.22806-60.78001,69.89701-20.57542,28.2912-30.80516,61.47194-48.62401,91.17001-.09074.15123-8.23463,15.11662-10.6365,13.6755-16.00583-9.6035,35.55824-72.77236,44.06551-82.05301c40.79627-44.50503,98.27255-65.57302,148.91103-95.72852c31.87532-18.98193,62.90986-39.34287,94.20902-59.26051c2.13657-1.35964,3.9958-3.11698,6.078-4.5585c4.50449-3.11849,9.06699-6.15439,13.6755-9.117c2.48432-1.59706,9.68585-2.47015,7.5975-4.5585-3.16157-3.16157-58.30542,18.51621-66.85801,22.7925-69.30128,34.65064-119.15229,74.40899-150.43052,147.39153-5.66209,13.21154-13.31649,25.98385-18.234,39.50701-1.08652,2.98794-12.156,36.46801-12.156,36.46801s2.94423-12.18048,4.5585-18.234c6.41151-24.04315,15.65268-46.44316,27.351-68.37751c32.29697-60.55683,84.19846-96.98008,136.75502-138.27452c15.74563-12.37156,33.80923-22.98262,51.66301-31.9095c6.22551-3.11275,12.0085-7.52375,18.234-10.6365c2.43963-1.21981,7.5975-5.76659,7.5975-3.039c0,2.95338-5.065,3.039-7.5975,4.5585-55.15938,33.09563-119.55723,64.85522-165.62553,110.92352-24.8907,24.8907-44.54197,56.24084-59.26051,88.13101-5.85273,12.68091-10.98179,25.90048-18.234,37.98751-1.30296,2.1716-2.76775,7.86875-4.5585,6.078-4.19425-4.19425,22.16103-57.00242,25.83151-63.81901c36.60657-67.98364,94.30227-121.62219,158.02803-164.10603c17.43806-11.62537,36.07782-21.45572,53.18251-33.42901c8.06039-5.64227,15.99739-11.42339,24.312-16.7145c2.49165-1.5856,8.3138-7.4237,7.5975-4.5585-.71317,2.85269-163.22258,157.8631-183.85953,185.37903-21.12748,28.16998-39.35231,64.7713-48.62401,98.76752-5.02506,18.42522-11.73959,36.46065-16.7145,54.70201-.71768,2.63148-.31141,7.5975-3.039,7.5975-7.27452,0-1.11935-32.73683,0-36.46801c3.41719-11.39064,6.21012-23.88255,10.6365-34.94851c29.18078-72.95195,80.36619-129.77783,139.79402-179.30103c18.17437-15.14531,34.76429-32.36994,53.18251-47.10451c7.58821-6.07057,15.15436-11.98461,22.7925-18.234c2.51009-2.05371,10.49829-4.62761,7.5975-6.078-3.28119-1.6406-49.25348,30.07089-56.22151,34.94851-56.87932,39.81552-116.20604,81.55762-151.95003,142.83302-11.79102,20.21317-23.58935,39.46075-33.42901,60.78001-4.72124,10.22935-6.85617,18.47459-10.6365,28.8705-.93213,2.56337-4.96769,9.5262-3.039,7.5975c19.1728-19.1728,29.22558-53.97018,47.10451-75.97501c62.73525-77.21262,165.26275-169.10844,252.23704-218.80804" fill="none" stroke="#000" stroke-width="3.2"/><path d="M1417.67685,487.75958c-16.27427-5.42476-32.46378-8.82211-47.10451-18.234-95.49967-61.39264,47.25329-117.8515,62.29951-50.14351c19.36736,87.1531-152.89159,86.92157-124.59902,9.117c17.87994-49.16985,125.88664-45.10051,106.36502,21.273-7.59881,25.83597-73.68013,62.73411-85.09201,22.7925-11.17368-39.10789,75.10936-95.28647,85.09201-65.33851c14.92608,44.77823-71.82567,85.86622-82.05301,57.74101-12.1268-33.3487,66.85801-58.50907,66.85801-13.6755c0,7.67266-1.01865,16.00992-7.5975,21.273-37.39848,29.91879-95.51119-66.23784-48.62401-72.93601c13.10067-1.87153,24.29895.24237,34.94851,9.117c56.97861,47.48218-57.26232,104.52274-75.97501,57.74101-13.85-34.62501,103.66957-72.07714,118.52102-34.94851c17.3469,43.36725-85.04311,75.55003-100.28702,50.14351-17.53438-29.22396,44.21094-74.34644,68.37751-56.22151c28.55467,21.416-19.58748,76.81777-48.62401,62.29951-39.39553-19.69777,38.28796-94.28152,69.89701-48.62401c29.3406,42.38086-38.1456,91.69262-66.85801,48.62401-24.77175-37.15762,28.80151-90.65511,66.85801-69.89701c50.7945,27.70609-45.58501,94.76907-45.58501,22.7925c0-44.51481,75.38751-33.21982,65.33851,13.6755-10.19597,47.5812-122.23928,39.91796-106.36502-28.8705c16.16463-70.04672,109.9241-24.55264,88.13102,36.46801-23.50696,65.81951-130.15515,1.10335-95.72852-48.62401c29.92857-43.23015,119.12977,17.14729,89.65052,59.26051-16.64922,23.78459-66.23454,2.88296-53.18251-25.8315c16.72401-36.79281,90.41421-14.11641,65.33851,28.87051-18.18431,31.1731-82.67008,19.70716-89.65052-15.195-10.3692-51.84599,100.08209-33.12161,66.85801,16.7145-30.65916,45.98875-122.99295-45.58501-59.26051-45.58501" fill="none" stroke="#000" stroke-width="3.2"/><path d="M1326.50684,469.52558c-29.07718,29.07718-202.59014,91.1997-218.80804,42.54601-19.90079-59.70236,217.39212-91.31115,250.71754-94.20902c11.72071-1.01919,80.18738-8.01986,82.05301,10.6365c1.95965,19.59651-44.31695,31.97237-56.22151,34.94851-26.91283,6.72821-222.38747,32.88857-235.52254,19.7535-10.34825-10.34825,21.68011-33.87871,28.8705-37.98751c22.1915-12.68086,174.62973-60.04878,188.41803-37.98751c30.05309,48.08493-225.07254,150.29751-241.60054,104.84552-27.45103-75.49034,221.3064-144.55735,230.96404-86.61151c11.08937,66.53621-179.41597,87.60494-220.32754,89.65051-14.26547.71327-63.81901,6.24352-63.81901-18.234c0-65.47845,147.95306-93.40137,194.49603-95.72852c15.01078-.75054,68.32291-10.40678,75.97501,10.6365c18.63075,51.23456-211.56195,88.24683-220.32754,75.97501-4.35132-6.09184,3.5439-14.61386,6.078-18.234c19.50082-27.85832,170.41473-82.83268,177.78153-34.94851c9.38695,61.01519-209.82807,91.47634-220.32754,68.37751-30.59196-67.30231,236.88397-121.05013,240.08104-69.89701c4.51285,72.20557-217.83998,103.74264-224.88604,89.65051-5.20352-10.40705,6.66822-21.81479,12.156-28.8705c42.23936-54.30775,117.18429-72.93601,182.34003-72.93601c17.29984,0,65.98498-5.04485,68.37751,21.273c5.66305,62.29351-243.35152,87.86591-253.75654,53.18251-14.73406-49.11354,139.07003-72.85084,165.62553-75.97501c6.84266-.80502,58.0096-9.73869,59.26051,1.5195c4.66291,41.96623-188.53825,88.84813-223.36654,91.17002-8.2067.54711-11.25345,2.33059-12.156-7.5975-5.90172-64.9189,163.70285-97.24802,205.13253-97.24802c15.09263,0,59.20928-8.09264,66.85801,9.117c20.21406,45.48164-177.51104,160.92117-212.73004,113.96252-41.74763-55.66351,163.68064-152.74011,199.05453-129.15752c19.57017,13.04678-16.70044,54.08155-25.8315,62.29951-38.97248,35.07523-181.35223,78.55875-197.53503,3.039-17.60619-82.16226,120.74776-102.00083,177.78153-97.24802c13.20865,1.10072,54.03175,30.80321,45.58501,45.58501-3.60143,6.30251-13.19613,1.46599-16.7145,0-27.14747-11.31145-104.84552-59.21318-104.84552-92.68952c0-59.83628,128.38392-35.95014,148.91102,41.02651c33.06781,124.00429-179.06754-83.51385-144.35253-112.44302c1.94552-1.62127,5.24613-.94055,7.5975,0c22.85333,9.14133,149.8181,137.27145,104.84552,158.02803-58.30707,26.91096-143.52387-84.40117-100.28702-127.63802c45.89674-45.89674,160.45959,56.95043,115.48202,110.92352-43.88656,52.66388-126.11852-16.73642-126.11852-83.57251c0-11.42207-1.62023-27.25028,7.5975-36.46801c42.47039-42.47039,145.59699,72.4238,107.88452,106.36502-11.54843,10.39359-26.51718,9.88065-41.02651,9.117-70.54243-3.71276-101.24282-128.25741-48.62401-147.39152c56.99062-20.72386,128.62676,123.43336,74.45551,159.54753-73.42265,48.94843-150.78934-135.242-106.36502-148.91102c43.96575-13.52792,140.29533,120.2363,109.40402,154.98903-37.23211,41.88612-176.50081-121.32124-138.27452-159.54753c33.65398-33.65398,198.20119,113.40303,150.43052,167.14503-45.65044,51.35674-166.65546-108.09082-123.07952-156.50853c45.18914-50.21015,143.07216,97.98846,98.76752,136.75502-47.68762,41.72666-218.38376-118.92162-144.35252-153.46953c48.58108-22.67117,129.33389,65.64086,150.43052,101.80652c5.36822,9.20266,30.0163,50.77458,9.117,57.74101-23.55199,7.85066-211.67567-96.28671-179.30103-136.75502c39.61872-49.52341,229.30985,107.60566,182.34003,142.83302-27.60836,20.70627-214.43418-80.25655-165.62553-153.46953c38.72963-58.09444,197.41766,62.30077,171.70353,129.15752-18.09135,47.03751-205.45201-25.2458-168.66453-92.68952c31.61726-57.96497,170.62328,28.7091,188.41803,71.41651c5.72958,13.75099,2.16777,66.85801-19.7535,66.85801-12.92378,0-1.56053-55.97532,0-65.33851c9.12866-54.77195,39.81962-118.05373,97.24802-133.71602c8.48183-2.31323,17.57055-4.95657,25.8315,0c44.16284,26.49771-44.16933,178.42502-95.72852,154.98903-45.65675-20.75307.54292-159.57456,69.89701-130.67702c60.68898,25.28707-40.50482,167.40588-98.76752,138.27452-47.5246-23.7623,29.27139-151.55678,100.28702-106.36502c59.13121,37.62895-71.45053,141.70393-94.20902,112.44302-30.816-39.62058,47.22743-180.76931,101.80652-158.02803c51.41025,21.42093,9.34213,199.24069-65.33851,176.26203-65.44339-20.13643-4.63315-179.75616,71.41651-138.27452c55.7699,30.41995-32.39293,166.82274-91.17002,127.63802-57.8463-38.5642.79963-169.98412,79.01401-150.43053c77.79076,19.44769,47.38313,166.45494-34.94851,145.87202-83.16227-20.79057-15.11503-227.87839,57.74101-185.37903c63.05614,36.78275-32.54242,219.89902-100.28702,199.05453-50.83801-15.64247,7.88505-182.20103,65.33851-177.78153c46.10744,3.54673,1.49575,169.41834-50.14351,156.50853-48.53612-12.13403,33.84036-210.90202,75.97501-179.30103c40.33297,30.24973,15.81518,217.45768-51.66301,199.05453-38.19697-10.41736-56.48055-106.91124-31.90951-133.71602c19.60435-21.38656,40.66629-41.44819,62.29951-60.78001c3.24745-2.90198,16.13279-4.43158,19.7535-3.039c57.97942,22.29978-4.5021,231.27108-94.20902,182.34003-63.29017-34.52191,35.61685-206.63872,107.88452-150.43052c65.35881,50.83463-6.20602,248.23513-91.17002,214.24954-10.5645-4.2258-8.35823-18.80015-6.078-27.351c11.43731-42.88991,155.52964-100.02608,177.78153-71.41651c6.0057,7.72162.03578,21.84244-3.039,28.87051-22.76079,52.02466-127.25071,97.5297-177.78153,60.78001-24.86474-18.08345,8.69146-53.77723,24.312-63.81901c24.24544-15.58635,174.20821-68.58344,196.01553-39.50701c34.14548,45.5273-187.70149,120.72249-206.65203,86.61151-26.66032-47.98857,153.00363-105.54435,168.66453-82.05301c41.16816,61.75223-153.47008,123.58286-161.06703,80.53351-12.66898-71.79086,186.9051-61.5184,202.09353-12.156c17.36393,56.43278-174.14897,53.33291-185.37903,12.156-16.79746-61.59071,171.46463-96.49616,183.85953-30.39c15.21548,81.14927-218.78236,56.50397-221.84704,22.7925-4.99946-54.9941,239.53444-41.39003,244.63954-27.35101c18.79178,51.67738-183.51707,55.88521-214.24954,47.10451-7.25816-2.07376-20.2794-3.94531-18.234-15.195c10.20597-56.13285,227.73103-78.49711,232.48354-16.7145c4.61091,59.94189-178.94404,47.72698-183.85953,18.234-8.32845-49.97073,153.58675-78.04913,168.66453-51.66301c35.68177,62.44311-167.78474,137.64823-208.17153,50.14351-25.34897-54.92277,178.89516-47.63785,189.93753-22.7925c15.93256,35.84825-161.10785,66.63346-167.14503,33.42901-7.08748-38.98116,137.29385-60.88943,164.10603-54.70201c3.75861.86737,9.74305.80601,10.6365,4.5585c19.33264,81.1971-246.38792,99.68301-230.96404,37.98751c14.05599-56.22397,157.1369-85.19712,199.05453-51.66301c47.33395,37.86716,23.28821,98.80272-33.429,106.36502-17.46992,2.32932-33.96942,4.5585-51.66301,4.5585-25.86676,0-51.53449-1.5195-77.49451-1.5195-3.039,0-6.9681,2.1489-9.117,0-1.82621-1.82621-.16127-5.6366,1.5195-7.5975c9.04687-10.55468,45.22744-7.5975,57.74101-7.5975c31.34488,0,149.27967-6.28123,121.56002,54.70201-23.83228,52.43102-238.87205,41.35354-212.73004-50.14351c21.33274-74.66458,239.07248-17.0783,191.45703,50.14351-45.54214,64.29479-221.89706-23.21563-192.97653-71.41651c27.6686-46.11433,195.15385,69.50376,156.50853,112.44302-20.68957,22.98841-173.88076-27.82709-162.58653-80.53351c2.68991-12.5529,19.61256-21.14217,30.39-24.312c26.0311-7.6562,57.69252-7.61462,83.57251,1.5195c28.88111,10.19333,108.4468,70.31585,83.57251,109.40402-30.14197,47.36596-207.00328-34.246-180.82053-86.61151c29.11647-58.23294,176.28951,30.28696,158.02803,98.76752-16.76866,62.88246-205.60834-33.61756-161.06703-97.24802c35.629-50.89857,161.06703,12.71045,161.06703,72.93601c0,9.191-.16331,21.6532-9.117,27.351-35.16102,22.3752-160.38361-47.86386-120.04052-92.68952c41.71466-46.34962,200.19083-17.46838,154.98903,62.29951-48.08711,84.85961-185.33364-45.2157-159.54753-82.05301c32.33319-46.19027,165.87915,47.48382,130.67702,100.28702-28.25037,42.37557-153.49524-58.93861-113.96252-86.61151c28.84904-20.19433,129.02599,66.15675,112.44302,92.68952-1.69779,2.71647-5.92175,3.26723-9.117,3.039-21.17972-1.51284-179.2393-99.66973-180.82053-115.48202-.29387-2.93872,1.97678-6.16321,4.5585-7.5975c21.076-11.70889,212.68664,83.70271,200.57403,120.04052-13.17714,39.53141-191.89215-25.65609-158.02803-86.61151c22.49944-40.49899,200.2496,21.92186,170.18403,82.05301-24.37372,48.74744-194.68808-50.28333-171.70353-79.01401c30.15926-37.69907,216.26754,30.28722,170.18403,86.61152-34.64091,42.33889-177.93604-80.72551-133.71602-104.84552c64.54849-35.20826,138.20335,104.97883,92.68952,115.48202-36.70929,8.47137-170.72386-65.05857-156.50853-112.44302c1.92506-6.41685,12.83325-12.19459,18.234-15.195c29.79836-16.55465,35.56202,50.31117,41.02651,65.33851c11.59142,31.8764,39.59584,78.20985-7.5975,101.80652-11.5296,5.7648-25.60374,4.5585-37.98751,4.5585-75.14407,0-77.34641-102.27129-39.50701-150.43052c14.5343-18.4982,38.28442-25.8315,60.78001-25.8315c99.99752,0,74.7631,193.85282,15.195,220.32754-10.21967,4.54208-15.70625-4.06149-19.7535-12.156-20.52884-41.05769-50.75307-189.98442,28.87051-183.85953c60.5429,4.65715,47.98258,170.88106-6.078,174.74253-35.66554,2.54754-103.74102-178.86541-10.6365-171.70353c82.56744,6.35134,42.95576,178.40666-6.078,159.54753-27.27392-10.48997-32.8835-163.2099,30.39-147.39152c62.64673,15.66168,11.29001,150.10511-39.50701,145.87202-39.0458-3.25382-72.91249-153.15458-13.6755-165.62553c84.69332-17.83017,76.24246,187.34527,13.6755,171.70353-38.32976-9.58244-27.85905-136.24351-19.7535-162.58653c1.48726-4.8336,3.56796-12.156,10.6365-12.156c34.50381,0,82.21731,165.06426,39.50701,179.30103-50.3938,16.79793-90.84885-180.08372-16.7145-185.37903c66.6364-4.75974,104.26261,169.59264,16.7145,174.74253-91.89617,5.40566-124.30874-164.40766-34.94851-179.30103c99.86589-16.64432,73.37936,209.33232-3.039,183.85953-55.07838-18.35946-58.99977-177.03579,12.156-168.66453c63.315,7.44882,71.80746,159.82966,12.156,174.74253-79.06335,19.76584-117.82119-173.69038-24.312-185.37903c76.58355-9.57295,95.1292,172.98764,21.273,199.05453-112.41313,39.67522-90.42131-195.16705-1.5195-189.93753c73.35025,4.31472,64.46743,184.16681-12.156,177.78153-56.63255-4.71938-114.42034-179.56505,6.078-173.22303c82.47211,4.34064,66.25383,194.90184-9.117,182.34003-55.18042-9.19674-42.62384-180.327,0-173.22303c30.2656,5.04427,61.85963,128.56864,27.351,147.39152-50.23019,27.39829-177.22871-126.39492-71.41651-179.30103" transform="translate(.000001 0.000001)" fill="none" stroke="#000" stroke-width="3.2"/></g><path d="M158.011143,843.322641l1.519497-7.597501c12.14853-36.44558,43.03792-76.5899,66.85801-106.36502c1.78987-2.23734,3.32305-6.86513,6.078-6.078c3.26698.93342,4.04185,5.7588,4.5585,9.117c4.55953,29.63694-83.38378,28.61565-95.72852,12.156-9.53159-12.70879,8.76883-50.15932,25.8315-44.06551c10.76521,3.84472,37.1288,50.34143,31.90951,60.78001-7.66737,15.33474-40.33328-8.90344-44.06551-18.234-2.93243-7.33108-4.21633-19.69838-3.039-27.351.9306-6.0489,11.92504-12.38697,7.5975-16.7145-4.08354-4.08353-11.76907,8.01266-10.6365,13.6755c1.50842,7.54212,21.06347,19.93406,25.8315,27.351c6.75122,10.5019,14.27957,26.12422,18.234,37.98751c10.7798,32.3394-1.82642,84.97903-42.54601,51.66301-38.2738-31.31493-13.52794-115.75122,21.273-89.65052c21.30283,15.97712-16.52034,42.99861-30.39,44.06551-4.04007.31077-12.156,4.052-12.156,0c0-4.17671,8.02127-2.44833,12.156-3.039c27.81515-3.97359,59.06933,2.40571,86.61152,6.078.45094.06013,20.97364-1.46416,12.156,9.117-3.62526,4.35032-11.06088,2.71594-16.7145,3.039-34.86841,1.99248-82.63322,11.66776-92.68951-31.9095-2.95554-12.80733-2.9372-27.55461,3.039-39.50701c13.72554-27.45109,84.22204-30.25091,94.20902,3.039c3.29144,10.97147-14.12179,50.2781-28.8705,37.98751-12.07001-10.05834,52.16345-67.94856,62.29951-59.26051c27.39336,23.48002-55.94855,73.76299-82.05301,59.26051-30.34296-16.8572,68.55535-61.03888,62.29951,1.5195-2.94293,29.42934-60.58572,29.87021-80.53351,18.234-18.92044-11.03693-37.1722-48.44608-16.7145-66.85801c11.75777-10.58199,32.72246-9.117,47.10451-9.117c7.091,0,14.182,0,21.273,0c2.5325,0,10.00004-.80085,7.5975,0-17.61427,5.87142-41.85164-.82513-54.70201-13.6755-7.52372-7.52372-14.8432-18.69809-18.234-28.8705-.80752-2.42257-4.75383-27.351-7.5975-27.351-7.10907,0-2.52487,14.23539-1.5195,21.273c2.94246,20.59721,44.55064,71.96575,36.46801,88.13101-12.23792,24.47583-81.65324,35.82819-104.84552,28.87051-4.88603-1.46581-11.32603-5.52893-9.117-12.156c4.60294-13.80881,130.04915-29.66343,136.75502-25.8315c9.3679,5.35308-6.76859,16.17914-9.117,18.234-18.85399,16.49724-39.87154,23.90876-62.29951,7.5975-4.35437-3.16682-13.6231-7.6761-10.6365-12.156c3.33026-4.99539,13.62229,7.54429,13.6755,7.5975c16.74067,16.74067,46.77436,50.14351,3.039,50.14351-33.99604,0-54.74044-72.70541-50.14351-100.28702c5.4666-32.79962,70.84498-31.35538,95.72852-33.42901c2.52375-.21031,6.79665-2.40254,7.5975,0s-6.69222,2.10161-6.078,4.5585c1.32307,5.29229,11.08957,2.48574,15.195,6.078c9.00463,7.87905,13.59231,23.72968,15.195,34.94851c2.23184,15.62286,2.96903,43.5384-15.195,50.14351-1.74285.63376-14.41298,3.22213-16.7145,0-11.22592-15.71629,53.08638-36.6722,62.29951-39.50701.2513-.07732,15.195-4.5585,15.195-4.5585s-5.065,2.026-7.5975,3.039c-19.52088,7.80835-32.58463-1.83275-44.06551-18.234-8.41251-12.01787-23.64961-35.70614-9.117-48.62401.44822-.39842,16.54431-11.48135,18.234-10.6365c2.43963,1.21981-1.52601,5.32801-3.039,7.5975-7.6002,11.4003-54.75873,34.08949-63.81901,18.234-12.34379-21.60163,42.52681-1.5579,48.62401,10.6365c14.06109,28.12218-37.30142,45.86281-54.70201,51.66301-1.8354.6118-33.05226,6.27264-31.9095,4.5585c5.07202-7.60803,33.01736-7.11471,41.02651-9.117c15.08101-3.77025,96.59136-23.57242,106.36502-15.195c4.7455,4.06757,2.0082,27.56456,1.5195,33.42901-1.56505,18.78055-36.79196,42.26062-56.22151,33.429-17.20171-7.81896-48.59019-36.44546-66.85801-48.62401-2.10717-1.40478-5.13745-2.20713-6.078-4.5585-10.81678-27.04195,36.97018-79.32571,53.18251-50.14351c14.90441,26.82795-50.54512,67.59913-63.81901,56.22151-18.9115-16.20986,23.46349-72.95557,28.87051-48.62401c3.03858,13.6736-41.9936,52.83667-41.02651,56.22151c2.49564,8.73475,48.86176,7.75096,57.74101,9.117c13.67071,2.10319,27.52498,2.10368,41.02651,4.5585c3.03122.55113,8.14273,4.44232,9.117,1.5195c1.02558-3.07675-5.17352-3.92335-7.5975-6.078-15.81722-14.05975-32.37774-29.98219-42.54601-48.62401-6.6846-12.2551-11.74916-67.02907,16.7145-47.10451c29.05428,20.338,18.91524,120.04052-7.5975,120.04052-5.66284,0-.74924-12.50534,3.039-16.7145c18.54201-20.60223,81.36736.53745,75.97501,16.7145-1.013,3.039-5.95086,2.5519-9.117,3.039-49.35786,7.59352-68.06199-32.73817-25.8315-62.29951c2.4195-1.69365,5.50915-6.64685,7.5975-4.5585c2.16987,2.16987-31.12763,28.91475-30.39,30.39001c2.58265,5.16531,11.01809-3.6091,16.7145-4.5585c20.18073-3.36345,34.14037-3.37572,53.18251,4.5585c22.17889,9.2412,114.36687,60.10185,120.04052,79.01401c0,0,6.078,15.195,6.078,15.195c4.32754,0,.68783-10.22067,4.5585-12.156c6.00378-3.00189,27.79777-10.7709,31.90951-1.5195c13.67108,30.75993-47.1908,12.83884-54.70201,12.156-2.57205-.23382-7.5975,1.06315-7.5975-1.5195c0-5.90676,11.0183-4.9403,15.195-9.117c13.63816-13.63816,5.43487,29.52495-15.195,21.273-12.34627-4.93851-5.44236-47.17513,7.5975-48.62401c12.03815-1.33757,12.70198,22.31883,12.156,28.8705-.43306,5.19672-11.28488,9.98813-7.5975,13.6755c1.29462,1.29462,22.26474-10.04494,18.234,6.078-.61422,2.45689-3.67546,5.35935-6.078,4.5585-12.15739-4.05246,9.07144-22.97146,16.7145-21.273c12.3275,2.73944,55.30788,68.38714,54.70201,71.41651" transform="matrix(-.545236 0.696183-.696183-.545236 874.709508 1032.423903)" fill="none" stroke="#000" stroke-width="3.2"/></svg>
